<svg width="3080" height="2248" xmlns="http://www.w3.org/2000/svg" xmlns:xlink="http://www.w3.org/1999/xlink" xml:space="preserve" overflow="hidden"><g transform="translate(-121 -79)"><rect x="121" y="79.0001" width="3080" height="2248" fill="#FFFFFF"/><path d="M2193.34 2081.7C2168.63 2081.7 2148.6 2101.73 2148.6 2126.44 2148.6 2151.15 2168.63 2171.19 2193.34 2171.19 2218.05 2171.19 2238.08 2151.15 2238.08 2126.44 2238.08 2101.73 2218.05 2081.7 2193.34 2081.7ZM1442.12 2081.7C1417.41 2081.7 1397.38 2101.73 1397.38 2126.44 1397.38 2151.15 1417.41 2171.19 1442.12 2171.19 1466.83 2171.19 1486.86 2151.15 1486.86 2126.44 1486.86 2101.73 1466.83 2081.7 1442.12 2081.7ZM2602.56 716.561C2577.85 716.561 2557.82 736.594 2557.82 761.307 2557.82 786.02 2577.85 806.053 2602.56 806.053 2627.27 806.053 2647.31 786.02 2647.31 761.307 2647.31 736.594 2627.27 716.561 2602.56 716.561ZM1304.74 681.482C1280.03 681.482 1259.99 701.516 1259.99 726.228 1259.99 750.941 1280.03 770.974 1304.74 770.974 1329.45 770.974 1349.48 750.941 1349.48 726.228 1349.48 701.516 1329.45 681.482 1304.74 681.482ZM1264.93 355.5 2646.07 355.5C2660.67 355.5 2672.5 367.333 2672.5 381.93L2672.5 2103.96C2672.5 2118.56 2660.67 2130.39 2646.07 2130.39L2328.34 2130.39 2264.23 2194.5 1376.84 2194.5 1312.73 2130.39 1264.93 2130.39C1250.33 2130.39 1238.5 2118.56 1238.5 2103.96L1238.5 381.93C1238.5 367.333 1250.33 355.5 1264.93 355.5Z" stroke="#000000" stroke-width="4.58333" stroke-linecap="round" stroke-linejoin="round" stroke-miterlimit="10" fill="#0B76A0" fill-rule="evenodd"/><text fill="#FFFFFF" font-family="Arial,Arial_MSFontService,sans-serif" font-weight="700" font-size="110" transform="matrix(1 0 0 1 1744.47 1250)">Arduino</text><text fill="#FFFFFF" font-family="Arial,Arial_MSFontService,sans-serif" font-weight="700" font-size="110" transform="matrix(1 0 0 1 2165.56 1250)"> </text><text fill="#FFFFFF" font-family="Arial,Arial_MSFontService,sans-serif" font-weight="700" font-size="110" transform="matrix(1 0 0 1 1832.69 1382)">UNO</text><text fill="#FFFFFF" font-family="Arial,Arial_MSFontService,sans-serif" font-weight="700" font-size="110" transform="matrix(1 0 0 1 2077.33 1382)"> </text><rect x="2105.5" y="261.5" width="314" height="351" stroke="#000000" stroke-width="4.58333" stroke-linecap="round" stroke-linejoin="round" stroke-miterlimit="10" fill="#D9D9D9"/><rect x="2485.5" y="419.5" width="170" height="193" stroke="#000000" stroke-width="4.58333" stroke-linecap="round" stroke-linejoin="round" stroke-miterlimit="10" fill="#D9D9D9"/><path d="M2519.5 516C2519.5 488.11 2542.33 465.5 2570.5 465.5 2598.67 465.5 2621.5 488.11 2621.5 516 2621.5 543.89 2598.67 566.5 2570.5 566.5 2542.33 566.5 2519.5 543.89 2519.5 516Z" stroke="#000000" stroke-width="4.58333" stroke-linecap="round" stroke-linejoin="round" stroke-miterlimit="10" fill="#FFFFFF" fill-rule="evenodd"/><rect x="1339.5" y="358.5" width="220" height="308" stroke="#000000" stroke-width="4.58333" stroke-linecap="round" stroke-linejoin="round" stroke-miterlimit="10" fill="#595959"/><rect x="1329.5" y="301.5" width="240" height="57.0001" stroke="#000000" stroke-width="4.58333" stroke-linecap="round" stroke-linejoin="round" stroke-miterlimit="10" fill="#595959"/><path d="M1885.5 2147.32 1885.5 2040.17 1898.73 2028.5 1937.61 2028.5 1950.1 2039.53 1962.6 2028.5 2001.48 2028.5 2014.94 2040.37 2014.94 2040.17 2028.17 2028.5 2067.04 2028.5 2080.5 2040.37 2080.5 2147.41 2065.66 2160.5 2029.87 2160.5 2014.94 2147.32 2014.94 2147.41 2000.1 2160.5 1964.31 2160.5 1950.26 2148.11 1936.22 2160.5 1900.43 2160.5Z" stroke="#000000" stroke-width="4.58333" stroke-linecap="round" stroke-linejoin="round" stroke-miterlimit="10" fill="#595959" fill-rule="evenodd"/><rect x="1903.5" y="2111.5" width="27.0001" height="25.9998" stroke="#000000" stroke-width="4.58333" stroke-linecap="round" stroke-linejoin="round" stroke-miterlimit="10" fill="#E0DD6E"/><rect x="1903.5" y="2050.5" width="27.0001" height="27.0002" stroke="#000000" stroke-width="4.58333" stroke-linecap="round" stroke-linejoin="round" stroke-miterlimit="10" fill="#E0DD6E"/><rect x="1967.5" y="2111.5" width="26.9998" height="25.9998" stroke="#000000" stroke-width="4.58333" stroke-linecap="round" stroke-linejoin="round" stroke-miterlimit="10" fill="#E0DD6E"/><rect x="1967.5" y="2050.5" width="26.9998" height="27.0002" stroke="#000000" stroke-width="4.58333" stroke-linecap="round" stroke-linejoin="round" stroke-miterlimit="10" fill="#E0DD6E"/><rect x="2033.5" y="2111.5" width="26.9998" height="25.9998" stroke="#000000" stroke-width="4.58333" stroke-linecap="round" stroke-linejoin="round" stroke-miterlimit="10" fill="#E0DD6E"/><rect x="2033.5" y="2050.5" width="26.9999" height="27.0002" stroke="#000000" stroke-width="4.58333" stroke-linecap="round" stroke-linejoin="round" stroke-miterlimit="10" fill="#E0DD6E"/><rect x="2569.5" y="827.5" width="70.0002" height="672" stroke="#000000" stroke-width="4.58333" stroke-linecap="round" stroke-linejoin="round" stroke-miterlimit="10" fill="#595959"/><rect x="2590.5" y="847.5" width="28.9998" height="28.0002" stroke="#000000" stroke-width="4.58333" stroke-linecap="round" stroke-linejoin="round" stroke-miterlimit="10"/><rect x="2590.5" y="914.5" width="28.9998" height="29.0002" stroke="#000000" stroke-width="4.58333" stroke-linecap="round" stroke-linejoin="round" stroke-miterlimit="10"/><rect x="2590.5" y="981.5" width="28.9998" height="29.0002" stroke="#000000" stroke-width="4.58333" stroke-linecap="round" stroke-linejoin="round" stroke-miterlimit="10"/><rect x="2590.5" y="1048.5" width="28.9998" height="29.0002" stroke="#000000" stroke-width="4.58333" stroke-linecap="round" stroke-linejoin="round" stroke-miterlimit="10"/><rect x="2590.5" y="1116.5" width="28.9998" height="27.9999" stroke="#000000" stroke-width="4.58333" stroke-linecap="round" stroke-linejoin="round" stroke-miterlimit="10"/><rect x="2590.5" y="1183.5" width="28.9998" height="27.9999" stroke="#000000" stroke-width="4.58333" stroke-linecap="round" stroke-linejoin="round" stroke-miterlimit="10"/><rect x="2590.5" y="1250.5" width="28.9998" height="28.9999" stroke="#000000" stroke-width="4.58333" stroke-linecap="round" stroke-linejoin="round" stroke-miterlimit="10"/><rect x="2590.5" y="1317.5" width="28.9998" height="28.9999" stroke="#000000" stroke-width="4.58333" stroke-linecap="round" stroke-linejoin="round" stroke-miterlimit="10"/><rect x="2590.5" y="1384.5" width="28.9998" height="28.9999" stroke="#000000" stroke-width="4.58333" stroke-linecap="round" stroke-linejoin="round" stroke-miterlimit="10"/><rect x="2590.5" y="1452.5" width="28.9998" height="28.0002" stroke="#000000" stroke-width="4.58333" stroke-linecap="round" stroke-linejoin="round" stroke-miterlimit="10"/><rect x="2569.5" y="1545.5" width="70.0002" height="539" stroke="#000000" stroke-width="4.58333" stroke-linecap="round" stroke-linejoin="round" stroke-miterlimit="10" fill="#595959"/><rect x="2590.5" y="1565.5" width="28.9998" height="29.0002" stroke="#000000" stroke-width="4.58333" stroke-linecap="round" stroke-linejoin="round" stroke-miterlimit="10"/><rect x="2590.5" y="1633.5" width="28.9998" height="27.9999" stroke="#000000" stroke-width="4.58333" stroke-linecap="round" stroke-linejoin="round" stroke-miterlimit="10"/><rect x="2590.5" y="1700.5" width="28.9998" height="28.9999" stroke="#000000" stroke-width="4.58333" stroke-linecap="round" stroke-linejoin="round" stroke-miterlimit="10"/><rect x="2590.5" y="1767.5" width="28.9998" height="28.9999" stroke="#000000" stroke-width="4.58333" stroke-linecap="round" stroke-linejoin="round" stroke-miterlimit="10"/><rect x="2590.5" y="1834.5" width="28.9998" height="28.9999" stroke="#000000" stroke-width="4.58333" stroke-linecap="round" stroke-linejoin="round" stroke-miterlimit="10"/><rect x="2590.5" y="1901.5" width="28.9998" height="28.9999" stroke="#000000" stroke-width="4.58333" stroke-linecap="round" stroke-linejoin="round" stroke-miterlimit="10"/><rect x="2590.5" y="1969.5" width="28.9998" height="28.0002" stroke="#000000" stroke-width="4.58333" stroke-linecap="round" stroke-linejoin="round" stroke-miterlimit="10"/><rect x="2590.5" y="2036.5" width="28.9998" height="29.0001" stroke="#000000" stroke-width="4.58333" stroke-linecap="round" stroke-linejoin="round" stroke-miterlimit="10"/><rect x="1270.5" y="1680.5" width="70.0001" height="404" stroke="#000000" stroke-width="4.58333" stroke-linecap="round" stroke-linejoin="round" stroke-miterlimit="10" fill="#595959"/><rect x="1291.5" y="1700.5" width="28.0002" height="28.9999" stroke="#000000" stroke-width="4.58333" stroke-linecap="round" stroke-linejoin="round" stroke-miterlimit="10"/><rect x="1291.5" y="1767.5" width="28.0002" height="28.9999" stroke="#000000" stroke-width="4.58333" stroke-linecap="round" stroke-linejoin="round" stroke-miterlimit="10"/><rect x="1291.5" y="1834.5" width="28.0002" height="28.9999" stroke="#000000" stroke-width="4.58333" stroke-linecap="round" stroke-linejoin="round" stroke-miterlimit="10"/><rect x="1291.5" y="1901.5" width="28.0002" height="28.9999" stroke="#000000" stroke-width="4.58333" stroke-linecap="round" stroke-linejoin="round" stroke-miterlimit="10"/><rect x="1291.5" y="1969.5" width="28.0002" height="28.0002" stroke="#000000" stroke-width="4.58333" stroke-linecap="round" stroke-linejoin="round" stroke-miterlimit="10"/><rect x="1291.5" y="2036.5" width="28.0002" height="29.0001" stroke="#000000" stroke-width="4.58333" stroke-linecap="round" stroke-linejoin="round" stroke-miterlimit="10"/><rect x="1271.5" y="1071.5" width="70.0001" height="538" stroke="#000000" stroke-width="4.58333" stroke-linecap="round" stroke-linejoin="round" stroke-miterlimit="10" fill="#595959"/><rect x="1292.5" y="1091.5" width="28.9999" height="29.0002" stroke="#000000" stroke-width="4.58333" stroke-linecap="round" stroke-linejoin="round" stroke-miterlimit="10"/><rect x="1292.5" y="1158.5" width="28.9999" height="29.0002" stroke="#000000" stroke-width="4.58333" stroke-linecap="round" stroke-linejoin="round" stroke-miterlimit="10"/><rect x="1292.5" y="1225.5" width="28.9999" height="28.9999" stroke="#000000" stroke-width="4.58333" stroke-linecap="round" stroke-linejoin="round" stroke-miterlimit="10"/><rect x="1292.5" y="1293.5" width="28.9999" height="27.9999" stroke="#000000" stroke-width="4.58333" stroke-linecap="round" stroke-linejoin="round" stroke-miterlimit="10"/><rect x="1292.5" y="1360.5" width="28.9999" height="27.9999" stroke="#000000" stroke-width="4.58333" stroke-linecap="round" stroke-linejoin="round" stroke-miterlimit="10"/><rect x="1292.5" y="1427.5" width="28.9999" height="28.9999" stroke="#000000" stroke-width="4.58333" stroke-linecap="round" stroke-linejoin="round" stroke-miterlimit="10"/><rect x="1292.5" y="1494.5" width="28.9999" height="28.9999" stroke="#000000" stroke-width="4.58333" stroke-linecap="round" stroke-linejoin="round" stroke-miterlimit="10"/><rect x="1292.5" y="1561.5" width="28.9999" height="28.9999" stroke="#000000" stroke-width="4.58333" stroke-linecap="round" stroke-linejoin="round" stroke-miterlimit="10"/><rect x="2105.5" y="183.5" width="314" height="78" stroke="#000000" stroke-width="4.58333" stroke-linecap="round" stroke-linejoin="round" stroke-miterlimit="10" fill="#D9D9D9"/><text fill="#FFFFFF" font-family="Arial,Arial_MSFontService,sans-serif" font-weight="400" font-size="55" transform="matrix(1 0 0 1 1362.59 1394)">5V</text><text fill="#FFFFFF" font-family="Arial,Arial_MSFontService,sans-serif" font-weight="400" font-size="55" transform="matrix(1 0 0 1 1429.62 1394)"> </text><text fill="#FFFFFF" font-family="Arial,Arial_MSFontService,sans-serif" font-weight="400" font-size="55" transform="matrix(1 0 0 1 1362.59 1528)">GND</text><text fill="#FFFFFF" font-family="Arial,Arial_MSFontService,sans-serif" font-weight="400" font-size="55" transform="matrix(1 0 0 1 1484.62 1528)"> </text><text fill="#FFFFFF" font-family="Arial,Arial_MSFontService,sans-serif" font-weight="400" font-size="55" transform="matrix(1 0 0 1 1362.59 1735)">A0</text><text fill="#FFFFFF" font-family="Arial,Arial_MSFontService,sans-serif" font-weight="400" font-size="55" transform="matrix(1 0 0 1 1429.62 1735)"> </text><path d="M574.357 1252.5 578.492 1252.91 578.492 1252.5 680.5 1252.5 680.5 1383.5 578.492 1383.5 578.492 1383.09 574.357 1383.5C537.433 1383.5 507.5 1354.17 507.5 1318 507.5 1281.83 537.433 1252.5 574.357 1252.5Z" stroke="#000000" stroke-width="4.58333" stroke-linecap="round" stroke-linejoin="round" stroke-miterlimit="10" fill="#6A7E52" fill-rule="evenodd"/><path d="M599.5 1278.5 605.196 1278.5 646.194 1278.5 869.5 1278.5 869.5 1300.48 646.194 1300.48 646.194 1310.75 599.5 1325.5 599.5 1278.5Z" stroke="#000000" stroke-width="4.58333" stroke-linecap="round" stroke-linejoin="round" stroke-miterlimit="10" fill="#D9D9D9" fill-rule="evenodd"/><path d="M646.198 1328.5 646.198 1335.51 841.5 1335.51 841.5 1357.5 646.198 1357.5 605.197 1357.5 599.5 1357.5 599.5 1343.25Z" stroke="#000000" stroke-width="4.58333" stroke-linecap="round" stroke-linejoin="round" stroke-miterlimit="10" fill="#D9D9D9" fill-rule="evenodd"/><rect x="680.5" y="1235.5" width="34.0001" height="165" stroke="#000000" stroke-width="4.58333" stroke-linecap="round" stroke-linejoin="round" stroke-miterlimit="10" fill="#6A7E52"/><path d="M13.9999 0C21.7318 0 27.9998 6.08542 27.9998 13.5921L27.9998 36.4703 27.9998 50.5927 27.9998 87 0 87 0 50.5927 0 36.4703 0 13.5921C0 6.08542 6.26799 0 13.9999 0Z" stroke="#000000" stroke-width="4.58333" stroke-linecap="round" stroke-linejoin="round" stroke-miterlimit="10" fill="#BFBFBF" fill-rule="evenodd" transform="matrix(1.83697e-16 1 1 -1.83697e-16 843.5 1591.5)"/><path d="M0 0 26.9998 0 26.9998 36.1128 26.9998 48.7419 26.9998 72.3856C26.9998 79.9048 20.9557 86.0003 13.4999 86.0003 6.04413 86.0003 0 79.9048 0 72.3856L0 48.7419 0 36.1128Z" stroke="#000000" stroke-width="4.58333" stroke-linecap="round" stroke-linejoin="round" stroke-miterlimit="10" fill="#BFBFBF" fill-rule="evenodd" transform="matrix(1.83697e-16 1 1 -1.83697e-16 1024.5 1592.5)"/><path d="M133.771 0C130.717 0 127.736 0.321794 124.857 0.934617L120.829 2.23471 120.502 1.53021 114.139 3.5545C106.217 5.51787 97.508 6.60354 88.3657 6.60354 79.2234 6.60354 70.5139 5.51787 62.5923 3.5545L58.2486 2.17288 57.8537 2.45529 53.1433 0.934617C50.264 0.321794 47.2828 0 44.2295 0 19.8022 0 0 20.5948 0 45.9999 0 71.405 19.8022 91.9998 44.2295 91.9998 47.2828 91.9998 50.264 91.678 53.1433 91.0652L55.369 90.3468 55.3785 90.3677 62.5923 88.073C70.5139 86.1096 79.2234 85.024 88.3657 85.024 97.508 85.024 106.217 86.1096 114.139 88.073L117.534 89.1532 117.852 88.8037 124.857 91.0652C127.736 91.678 130.717 91.9998 133.771 91.9998 158.198 91.9998 178 71.405 178 45.9999 178 20.5948 158.198 0 133.771 0Z" stroke="#000000" stroke-width="4.58333" stroke-linecap="round" stroke-linejoin="round" stroke-miterlimit="10" fill="#DEC9A2" fill-rule="evenodd" transform="matrix(-1 0 0 1 1064.5 1559.5)"/><text font-family="Arial,Arial_MSFontService,sans-serif" font-weight="400" font-size="55" transform="matrix(1 0 0 1 910.39 1625)">10kΩ</text><text font-family="Arial,Arial_MSFontService,sans-serif" font-weight="400" font-size="55" transform="matrix(1 0 0 1 1039.87 1625)"> </text><path d="M848.875 1609 848.875 1714 842 1707.12 1304 1707.12C1307.8 1707.12 1310.87 1710.2 1310.87 1714 1310.87 1717.8 1307.8 1720.88 1304 1720.88L842 1720.88C838.203 1720.88 835.125 1717.8 835.125 1714L835.125 1609C835.125 1605.2 838.203 1602.13 842 1602.13 845.797 1602.13 848.875 1605.2 848.875 1609ZM821.375 1609C821.375 1597.61 830.609 1588.38 842 1588.38 853.391 1588.38 862.625 1597.61 862.625 1609 862.625 1620.39 853.391 1629.63 842 1629.63 830.609 1629.63 821.375 1620.39 821.375 1609ZM1304 1693.38C1315.39 1693.38 1324.62 1702.61 1324.62 1714 1324.62 1725.39 1315.39 1734.62 1304 1734.62 1292.61 1734.62 1283.37 1725.39 1283.37 1714 1283.37 1702.61 1292.61 1693.38 1304 1693.38Z"/><path d="M0 0 29.9999 0 29.9999 38.5361C29.9999 46.5244 23.2842 53.0003 15 53.0003 6.71573 53.0003 0 46.5244 0 38.5361Z" stroke="#000000" stroke-width="4.58333" stroke-linecap="round" stroke-linejoin="round" stroke-miterlimit="10" fill="#BFBFBF" fill-rule="evenodd" transform="matrix(-1 0 0 1 936.5 1475.5)"/><path d="M0 0 30.9999 0 30.9999 38.5361C30.9999 46.5244 24.0603 53.0003 15.5 53.0003 6.93959 53.0003 0 46.5244 0 38.5361Z" stroke="#000000" stroke-width="4.58333" stroke-linecap="round" stroke-linejoin="round" stroke-miterlimit="10" fill="#BFBFBF" fill-rule="evenodd" transform="matrix(-1 0 0 1 1036.5 1475.5)"/><path d="M82.5672 0C112.296 0 137.804 6.0078 148.7 14.5701L151.96 18.0617 152.544 18.4213C159.005 24.322 163 32.4737 163 41.4778L163 49.6987 163 54.7841 163 72.716 160.55 83.8019 160.521 86.2349C159.361 95.2042 156.123 104.843 151.083 113.024 146.042 121.206 140.154 126.381 134.709 128.135L129.26 128.143 127.474 128.999C122.073 129.08 115.922 124.187 110.74 115.548L108.795 111.556 108.424 111.556 106.719 107.913C102.616 103.727 93.0098 100.79 81.814 100.79 70.6182 100.79 61.0121 103.727 56.9087 107.913L55.2041 111.556 53.524 111.556 52.8321 113.024C47.7916 121.206 41.9033 126.381 36.4583 128.135L31.0094 128.143 29.2235 128.999C22.0222 129.107 13.4878 120.372 7.69414 105.706 5.76319 100.817 4.31924 95.7322 3.36174 90.7229L2.87502 85.7237 0 72.716 0 54.7841 0 49.6987 0 41.4778C0 32.4737 3.99541 24.322 10.4555 18.4213L16.0642 14.9674 16.4351 14.5701C27.3309 6.0078 52.8382 0 82.5672 0Z" stroke="#000000" stroke-width="4.58333" stroke-linecap="round" stroke-linejoin="round" stroke-miterlimit="10" fill="#4E95D9" fill-rule="evenodd" transform="matrix(-1 0 0 1 1052.5 1356.5)"/><text fill="#FFFFFF" font-family="Arial,Arial_MSFontService,sans-serif" font-weight="400" font-size="55" transform="matrix(1 0 0 1 922.316 1427)">1μF</text><text fill="#FFFFFF" font-family="Arial,Arial_MSFontService,sans-serif" font-weight="400" font-size="55" transform="matrix(1 0 0 1 1017.99 1427)"> </text><path d="M849.875 1342 849.875 1606.37C849.875 1610.17 846.797 1613.25 843 1613.25 839.203 1613.25 836.125 1610.17 836.125 1606.37L836.125 1342C836.125 1338.2 839.203 1335.12 843 1335.12 846.797 1335.12 849.875 1338.2 849.875 1342ZM822.375 1342C822.375 1330.61 831.609 1321.38 843 1321.38 854.391 1321.38 863.625 1330.61 863.625 1342 863.625 1353.39 854.391 1362.62 843 1362.62 831.609 1362.62 822.375 1353.39 822.375 1342ZM863.625 1606.37C863.625 1617.77 854.391 1627 843 1627 831.609 1627 822.375 1617.77 822.375 1606.37 822.375 1594.98 831.609 1585.75 843 1585.75 854.391 1585.75 863.625 1594.98 863.625 1606.37Z"/><path d="M1107.88 1509 1107.88 1606.3C1107.88 1610.1 1104.8 1613.18 1101 1613.18 1097.2 1613.18 1094.13 1610.1 1094.13 1606.3L1094.12 1509C1094.12 1505.2 1097.2 1502.13 1101 1502.13 1104.8 1502.13 1107.88 1505.2 1107.88 1509ZM1080.38 1509C1080.38 1497.61 1089.61 1488.38 1101 1488.38 1112.39 1488.38 1121.62 1497.61 1121.62 1509 1121.62 1520.39 1112.39 1529.63 1101 1529.63 1089.61 1529.63 1080.38 1520.39 1080.38 1509ZM1121.63 1606.3C1121.63 1617.69 1112.39 1626.93 1101 1626.93 1089.61 1626.93 1080.38 1617.69 1080.38 1606.3 1080.38 1594.91 1089.61 1585.68 1101 1585.68 1112.39 1585.68 1121.63 1594.91 1121.63 1606.3Z"/><path d="M842 1502.13 916.25 1502.13C920.047 1502.13 923.125 1505.2 923.125 1509 923.125 1512.8 920.047 1515.88 916.25 1515.88L842 1515.88C838.203 1515.88 835.125 1512.8 835.125 1509 835.125 1505.2 838.203 1502.13 842 1502.13ZM842 1529.63C830.609 1529.63 821.375 1520.39 821.375 1509 821.375 1497.61 830.609 1488.38 842 1488.38 853.391 1488.38 862.625 1497.61 862.625 1509 862.625 1520.39 853.391 1529.63 842 1529.63ZM916.25 1488.38C927.641 1488.38 936.875 1497.61 936.875 1509 936.875 1520.39 927.641 1529.63 916.25 1529.63 904.859 1529.63 895.625 1520.39 895.625 1509 895.625 1497.61 904.859 1488.38 916.25 1488.38Z"/><path d="M1020 1502.13 1303.25 1502.13C1307.05 1502.13 1310.12 1505.2 1310.12 1509 1310.12 1512.8 1307.05 1515.88 1303.25 1515.88L1020 1515.88C1016.2 1515.88 1013.12 1512.8 1013.12 1509 1013.12 1505.2 1016.2 1502.13 1020 1502.13ZM1020 1529.63C1008.61 1529.63 999.375 1520.39 999.375 1509 999.375 1497.61 1008.61 1488.38 1020 1488.38 1031.39 1488.38 1040.62 1497.61 1040.62 1509 1040.62 1520.39 1031.39 1529.63 1020 1529.63ZM1303.25 1488.38C1314.64 1488.38 1323.87 1497.61 1323.87 1509 1323.87 1520.39 1314.64 1529.63 1303.25 1529.63 1291.86 1529.63 1282.62 1520.39 1282.62 1509 1282.62 1497.61 1291.86 1488.38 1303.25 1488.38Z"/><path d="M867.257 1286.24 1305.7 1367.75C1309.43 1368.45 1311.89 1372.04 1311.2 1375.77 1310.5 1379.5 1306.92 1381.97 1303.18 1381.27L864.743 1299.76C861.01 1299.07 858.547 1295.48 859.241 1291.74 859.935 1288.01 863.523 1285.55 867.257 1286.24ZM862.23 1313.28C851.031 1311.2 843.64 1300.43 845.722 1289.23 847.804 1278.03 858.571 1270.64 869.77 1272.72 880.969 1274.8 888.359 1285.57 886.277 1296.77 884.195 1307.97 873.429 1315.36 862.23 1313.28ZM1308.21 1354.24C1319.41 1356.32 1326.8 1367.08 1324.72 1378.28 1322.63 1389.48 1311.87 1396.87 1300.67 1394.79 1289.47 1392.71 1282.08 1381.94 1284.16 1370.74 1286.24 1359.54 1297.01 1352.15 1308.21 1354.24Z"/><text font-family="Arial,Arial_MSFontService,sans-serif" font-weight="400" font-size="55" transform="matrix(1 0 0 1 759.387 1250)">C</text><text font-family="Arial,Arial_MSFontService,sans-serif" font-weight="400" font-size="55" transform="matrix(1 0 0 1 798.918 1250)"> </text><text font-family="Arial,Arial_MSFontService,sans-serif" font-weight="400" font-size="55" transform="matrix(1 0 0 1 760.819 1423)">E</text><text font-family="Arial,Arial_MSFontService,sans-serif" font-weight="400" font-size="55" transform="matrix(1 0 0 1 797.486 1423)"> </text><text font-family="Arial,Arial_MSFontService,sans-serif" font-weight="400" font-size="55" transform="matrix(1 0 0 1 478.458 1210)">NJL7502L</text></g></svg>