<svg width="3080" height="2248" xmlns="http://www.w3.org/2000/svg" xmlns:xlink="http://www.w3.org/1999/xlink" xml:space="preserve" overflow="hidden"><g transform="translate(-121 -79)"><rect x="121" y="79.0001" width="3080" height="2248" fill="#FFFFFF"/><path d="M2276 2081.7C2251.28 2081.7 2231.23 2101.73 2231.23 2126.44 2231.23 2151.15 2251.28 2171.19 2276 2171.19 2300.73 2171.19 2320.78 2151.15 2320.78 2126.44 2320.78 2101.73 2300.73 2081.7 2276 2081.7ZM1524.26 2081.7C1499.53 2081.7 1479.49 2101.73 1479.49 2126.44 1479.49 2151.15 1499.53 2171.19 1524.26 2171.19 1548.99 2171.19 1569.04 2151.15 1569.04 2126.44 1569.04 2101.73 1548.99 2081.7 1524.26 2081.7ZM2685.51 716.561C2660.79 716.561 2640.74 736.594 2640.74 761.307 2640.74 786.02 2660.79 806.053 2685.51 806.053 2710.24 806.053 2730.29 786.02 2730.29 761.307 2730.29 736.594 2710.24 716.561 2685.51 716.561ZM1386.78 681.482C1362.05 681.482 1342.01 701.516 1342.01 726.228 1342.01 750.941 1362.05 770.974 1386.78 770.974 1411.51 770.974 1431.56 750.941 1431.56 726.228 1431.56 701.516 1411.51 681.482 1386.78 681.482ZM1346.95 355.5 2729.05 355.5C2743.66 355.5 2755.5 367.333 2755.5 381.93L2755.5 2103.96C2755.5 2118.56 2743.66 2130.39 2729.05 2130.39L2411.1 2130.39 2346.95 2194.5 1458.94 2194.5 1394.78 2130.39 1346.95 2130.39C1332.34 2130.39 1320.5 2118.56 1320.5 2103.96L1320.5 381.93C1320.5 367.333 1332.34 355.5 1346.95 355.5Z" stroke="#000000" stroke-width="4.58333" stroke-linecap="round" stroke-linejoin="round" stroke-miterlimit="10" fill="#0B76A0" fill-rule="evenodd"/><text fill="#FFFFFF" font-family="Arial,Arial_MSFontService,sans-serif" font-weight="700" font-size="110" transform="matrix(1 0 0 1 1826.97 1250)">Arduino</text><text fill="#FFFFFF" font-family="Arial,Arial_MSFontService,sans-serif" font-weight="700" font-size="110" transform="matrix(1 0 0 1 2248.06 1250)"> </text><text fill="#FFFFFF" font-family="Arial,Arial_MSFontService,sans-serif" font-weight="700" font-size="110" transform="matrix(1 0 0 1 1915.19 1382)">UNO</text><text fill="#FFFFFF" font-family="Arial,Arial_MSFontService,sans-serif" font-weight="700" font-size="110" transform="matrix(1 0 0 1 2159.83 1382)"> </text><rect x="2188.5" y="261.5" width="313" height="351" stroke="#000000" stroke-width="4.58333" stroke-linecap="round" stroke-linejoin="round" stroke-miterlimit="10" fill="#D9D9D9"/><rect x="2567.5" y="419.5" width="171" height="193" stroke="#000000" stroke-width="4.58333" stroke-linecap="round" stroke-linejoin="round" stroke-miterlimit="10" fill="#D9D9D9"/><path d="M2602.5 516C2602.5 488.11 2625.11 465.5 2653 465.5 2680.89 465.5 2703.5 488.11 2703.5 516 2703.5 543.89 2680.89 566.5 2653 566.5 2625.11 566.5 2602.5 543.89 2602.5 516Z" stroke="#000000" stroke-width="4.58333" stroke-linecap="round" stroke-linejoin="round" stroke-miterlimit="10" fill="#FFFFFF" fill-rule="evenodd"/><rect x="1422.5" y="358.5" width="219" height="308" stroke="#000000" stroke-width="4.58333" stroke-linecap="round" stroke-linejoin="round" stroke-miterlimit="10" fill="#595959"/><rect x="1412.5" y="301.5" width="239" height="57.0001" stroke="#000000" stroke-width="4.58333" stroke-linecap="round" stroke-linejoin="round" stroke-miterlimit="10" fill="#595959"/><path d="M1967.5 2147.32 1967.5 2040.17 1980.8 2028.5 2019.88 2028.5 2032.44 2039.53 2045 2028.5 2084.07 2028.5 2097.6 2040.37 2097.6 2040.17 2110.9 2028.5 2149.97 2028.5 2163.5 2040.37 2163.5 2147.41 2148.58 2160.5 2112.61 2160.5 2097.6 2147.32 2097.6 2147.41 2082.68 2160.5 2046.71 2160.5 2032.6 2148.11 2018.48 2160.5 1982.51 2160.5Z" stroke="#000000" stroke-width="4.58333" stroke-linecap="round" stroke-linejoin="round" stroke-miterlimit="10" fill="#595959" fill-rule="evenodd"/><rect x="1986.5" y="2111.5" width="26.9998" height="25.9998" stroke="#000000" stroke-width="4.58333" stroke-linecap="round" stroke-linejoin="round" stroke-miterlimit="10" fill="#E0DD6E"/><rect x="1986.5" y="2050.5" width="26.9998" height="27.0002" stroke="#000000" stroke-width="4.58333" stroke-linecap="round" stroke-linejoin="round" stroke-miterlimit="10" fill="#E0DD6E"/><rect x="2050.5" y="2111.5" width="27.0002" height="25.9998" stroke="#000000" stroke-width="4.58333" stroke-linecap="round" stroke-linejoin="round" stroke-miterlimit="10" fill="#E0DD6E"/><rect x="2050.5" y="2050.5" width="27.0002" height="27.0002" stroke="#000000" stroke-width="4.58333" stroke-linecap="round" stroke-linejoin="round" stroke-miterlimit="10" fill="#E0DD6E"/><rect x="2116.5" y="2111.5" width="26.0002" height="25.9998" stroke="#000000" stroke-width="4.58333" stroke-linecap="round" stroke-linejoin="round" stroke-miterlimit="10" fill="#E0DD6E"/><rect x="2116.5" y="2050.5" width="26.0002" height="27.0002" stroke="#000000" stroke-width="4.58333" stroke-linecap="round" stroke-linejoin="round" stroke-miterlimit="10" fill="#E0DD6E"/><rect x="2652.5" y="827.5" width="70.0002" height="672" stroke="#000000" stroke-width="4.58333" stroke-linecap="round" stroke-linejoin="round" stroke-miterlimit="10" fill="#595959"/><rect x="2673.5" y="847.5" width="28.0002" height="28.0002" stroke="#000000" stroke-width="4.58333" stroke-linecap="round" stroke-linejoin="round" stroke-miterlimit="10"/><rect x="2673.5" y="914.5" width="28.0002" height="29.0002" stroke="#000000" stroke-width="4.58333" stroke-linecap="round" stroke-linejoin="round" stroke-miterlimit="10"/><rect x="2673.5" y="981.5" width="28.0002" height="29.0002" stroke="#000000" stroke-width="4.58333" stroke-linecap="round" stroke-linejoin="round" stroke-miterlimit="10"/><rect x="2673.5" y="1048.5" width="28.0002" height="29.0002" stroke="#000000" stroke-width="4.58333" stroke-linecap="round" stroke-linejoin="round" stroke-miterlimit="10"/><rect x="2673.5" y="1116.5" width="28.0002" height="27.9999" stroke="#000000" stroke-width="4.58333" stroke-linecap="round" stroke-linejoin="round" stroke-miterlimit="10"/><rect x="2673.5" y="1183.5" width="28.0002" height="27.9999" stroke="#000000" stroke-width="4.58333" stroke-linecap="round" stroke-linejoin="round" stroke-miterlimit="10"/><rect x="2673.5" y="1250.5" width="28.0002" height="28.9999" stroke="#000000" stroke-width="4.58333" stroke-linecap="round" stroke-linejoin="round" stroke-miterlimit="10"/><rect x="2673.5" y="1317.5" width="28.0002" height="28.9999" stroke="#000000" stroke-width="4.58333" stroke-linecap="round" stroke-linejoin="round" stroke-miterlimit="10"/><rect x="2673.5" y="1384.5" width="28.0002" height="28.9999" stroke="#000000" stroke-width="4.58333" stroke-linecap="round" stroke-linejoin="round" stroke-miterlimit="10"/><rect x="2673.5" y="1452.5" width="28.0002" height="28.0002" stroke="#000000" stroke-width="4.58333" stroke-linecap="round" stroke-linejoin="round" stroke-miterlimit="10"/><rect x="2652.5" y="1545.5" width="70.0002" height="539" stroke="#000000" stroke-width="4.58333" stroke-linecap="round" stroke-linejoin="round" stroke-miterlimit="10" fill="#595959"/><rect x="2673.5" y="1565.5" width="28.0002" height="29.0002" stroke="#000000" stroke-width="4.58333" stroke-linecap="round" stroke-linejoin="round" stroke-miterlimit="10"/><rect x="2673.5" y="1633.5" width="28.0002" height="27.9999" stroke="#000000" stroke-width="4.58333" stroke-linecap="round" stroke-linejoin="round" stroke-miterlimit="10"/><rect x="2673.5" y="1700.5" width="28.0002" height="28.9999" stroke="#000000" stroke-width="4.58333" stroke-linecap="round" stroke-linejoin="round" stroke-miterlimit="10"/><rect x="2673.5" y="1767.5" width="28.0002" height="28.9999" stroke="#000000" stroke-width="4.58333" stroke-linecap="round" stroke-linejoin="round" stroke-miterlimit="10"/><rect x="2673.5" y="1834.5" width="28.0002" height="28.9999" stroke="#000000" stroke-width="4.58333" stroke-linecap="round" stroke-linejoin="round" stroke-miterlimit="10"/><rect x="2673.5" y="1901.5" width="28.0002" height="28.9999" stroke="#000000" stroke-width="4.58333" stroke-linecap="round" stroke-linejoin="round" stroke-miterlimit="10"/><rect x="2673.5" y="1969.5" width="28.0002" height="28.0002" stroke="#000000" stroke-width="4.58333" stroke-linecap="round" stroke-linejoin="round" stroke-miterlimit="10"/><rect x="2673.5" y="2036.5" width="28.0002" height="29.0001" stroke="#000000" stroke-width="4.58333" stroke-linecap="round" stroke-linejoin="round" stroke-miterlimit="10"/><rect x="1352.5" y="1680.5" width="69.9998" height="404" stroke="#000000" stroke-width="4.58333" stroke-linecap="round" stroke-linejoin="round" stroke-miterlimit="10" fill="#595959"/><rect x="1373.5" y="1700.5" width="28.9999" height="28.9999" stroke="#000000" stroke-width="4.58333" stroke-linecap="round" stroke-linejoin="round" stroke-miterlimit="10"/><rect x="1373.5" y="1767.5" width="28.9999" height="28.9999" stroke="#000000" stroke-width="4.58333" stroke-linecap="round" stroke-linejoin="round" stroke-miterlimit="10"/><rect x="1373.5" y="1834.5" width="28.9999" height="28.9999" stroke="#000000" stroke-width="4.58333" stroke-linecap="round" stroke-linejoin="round" stroke-miterlimit="10"/><rect x="1373.5" y="1901.5" width="28.9999" height="28.9999" stroke="#000000" stroke-width="4.58333" stroke-linecap="round" stroke-linejoin="round" stroke-miterlimit="10"/><rect x="1373.5" y="1969.5" width="28.9999" height="28.0002" stroke="#000000" stroke-width="4.58333" stroke-linecap="round" stroke-linejoin="round" stroke-miterlimit="10"/><rect x="1373.5" y="2036.5" width="28.9999" height="29.0001" stroke="#000000" stroke-width="4.58333" stroke-linecap="round" stroke-linejoin="round" stroke-miterlimit="10"/><rect x="1353.5" y="1071.5" width="70.0001" height="538" stroke="#000000" stroke-width="4.58333" stroke-linecap="round" stroke-linejoin="round" stroke-miterlimit="10" fill="#595959"/><rect x="1374.5" y="1091.5" width="28.9999" height="29.0002" stroke="#000000" stroke-width="4.58333" stroke-linecap="round" stroke-linejoin="round" stroke-miterlimit="10"/><rect x="1374.5" y="1158.5" width="28.9999" height="29.0002" stroke="#000000" stroke-width="4.58333" stroke-linecap="round" stroke-linejoin="round" stroke-miterlimit="10"/><rect x="1374.5" y="1225.5" width="28.9999" height="28.9999" stroke="#000000" stroke-width="4.58333" stroke-linecap="round" stroke-linejoin="round" stroke-miterlimit="10"/><rect x="1374.5" y="1293.5" width="28.9999" height="27.9999" stroke="#000000" stroke-width="4.58333" stroke-linecap="round" stroke-linejoin="round" stroke-miterlimit="10"/><rect x="1374.5" y="1360.5" width="28.9999" height="27.9999" stroke="#000000" stroke-width="4.58333" stroke-linecap="round" stroke-linejoin="round" stroke-miterlimit="10"/><rect x="1374.5" y="1427.5" width="28.9999" height="28.9999" stroke="#000000" stroke-width="4.58333" stroke-linecap="round" stroke-linejoin="round" stroke-miterlimit="10"/><rect x="1374.5" y="1494.5" width="28.9999" height="28.9999" stroke="#000000" stroke-width="4.58333" stroke-linecap="round" stroke-linejoin="round" stroke-miterlimit="10"/><rect x="1374.5" y="1561.5" width="28.9999" height="28.9999" stroke="#000000" stroke-width="4.58333" stroke-linecap="round" stroke-linejoin="round" stroke-miterlimit="10"/><rect x="2188.5" y="183.5" width="313" height="78" stroke="#000000" stroke-width="4.58333" stroke-linecap="round" stroke-linejoin="round" stroke-miterlimit="10" fill="#D9D9D9"/><text fill="#FFFFFF" font-family="Arial,Arial_MSFontService,sans-serif" font-weight="400" font-size="55" transform="matrix(1 0 0 1 1445.09 1394)">5V</text><text fill="#FFFFFF" font-family="Arial,Arial_MSFontService,sans-serif" font-weight="400" font-size="55" transform="matrix(1 0 0 1 1512.12 1394)"> </text><text fill="#FFFFFF" font-family="Arial,Arial_MSFontService,sans-serif" font-weight="400" font-size="55" transform="matrix(1 0 0 1 1445.09 1528)">GND</text><text fill="#FFFFFF" font-family="Arial,Arial_MSFontService,sans-serif" font-weight="400" font-size="55" transform="matrix(1 0 0 1 1567.12 1528)"> </text><text fill="#FFFFFF" font-family="Arial,Arial_MSFontService,sans-serif" font-weight="400" font-size="55" transform="matrix(1 0 0 1 1445.09 1735)">A0</text><text fill="#FFFFFF" font-family="Arial,Arial_MSFontService,sans-serif" font-weight="400" font-size="55" transform="matrix(1 0 0 1 1512.12 1735)"> </text><path d="M656.97 1252.5 661.082 1252.91 661.082 1252.5 762.5 1252.5 762.5 1383.5 661.082 1383.5 661.082 1383.09 656.97 1383.5C620.26 1383.5 590.5 1354.17 590.5 1318 590.5 1281.83 620.26 1252.5 656.97 1252.5Z" stroke="#000000" stroke-width="4.58333" stroke-linecap="round" stroke-linejoin="round" stroke-miterlimit="10" fill="#6A7E52" fill-rule="evenodd"/><path d="M681.5 1278.5 687.196 1278.5 728.194 1278.5 951.5 1278.5 951.5 1300.48 728.194 1300.48 728.194 1310.75 681.5 1325.5 681.5 1278.5Z" stroke="#000000" stroke-width="4.58333" stroke-linecap="round" stroke-linejoin="round" stroke-miterlimit="10" fill="#D9D9D9" fill-rule="evenodd"/><path d="M728.198 1328.5 728.198 1335.51 923.5 1335.51 923.5 1357.5 728.198 1357.5 687.197 1357.5 681.5 1357.5 681.5 1343.25Z" stroke="#000000" stroke-width="4.58333" stroke-linecap="round" stroke-linejoin="round" stroke-miterlimit="10" fill="#D9D9D9" fill-rule="evenodd"/><rect x="762.5" y="1235.5" width="34.0001" height="165" stroke="#000000" stroke-width="4.58333" stroke-linecap="round" stroke-linejoin="round" stroke-miterlimit="10" fill="#6A7E52"/><path d="M13.9999 0C21.7318 0 27.9998 6.08542 27.9998 13.5921L27.9998 36.4703 27.9998 50.5927 27.9998 87 0 87 0 50.5927 0 36.4703 0 13.5921C0 6.08542 6.26799 0 13.9999 0Z" stroke="#000000" stroke-width="4.58333" stroke-linecap="round" stroke-linejoin="round" stroke-miterlimit="10" fill="#BFBFBF" fill-rule="evenodd" transform="matrix(1.83697e-16 1 1 -1.83697e-16 925.5 1591.5)"/><path d="M0 0 26.9998 0 26.9998 36.5326 26.9998 49.3085 26.9998 73.227C26.9998 80.8336 20.9557 87 13.4999 87 6.04413 87 0 80.8336 0 73.227L0 49.3085 0 36.5326Z" stroke="#000000" stroke-width="4.58333" stroke-linecap="round" stroke-linejoin="round" stroke-miterlimit="10" fill="#BFBFBF" fill-rule="evenodd" transform="matrix(1.83697e-16 1 1 -1.83697e-16 1106.5 1592.5)"/><path d="M134.522 0C131.452 0 128.454 0.321794 125.558 0.934617L121.508 2.23471 121.179 1.53021 114.78 3.5545C106.814 5.51787 98.0558 6.60354 88.8621 6.60354 79.6685 6.60354 70.9101 5.51787 62.944 3.5545L58.5758 2.17288 58.1788 2.45529 53.4419 0.934617C50.5464 0.321794 47.5485 0 44.478 0 19.9134 0 0 20.5948 0 45.9999 0 71.405 19.9134 91.9998 44.478 91.9998 47.5485 91.9998 50.5464 91.678 53.4419 91.0652L55.6801 90.3468 55.6896 90.3677 62.944 88.073C70.9101 86.1096 79.6685 85.024 88.8621 85.024 98.0558 85.024 106.814 86.1096 114.78 88.073L118.194 89.1532 118.514 88.8037 125.558 91.0652C128.454 91.678 131.452 91.9998 134.522 91.9998 159.087 91.9998 179 71.405 179 45.9999 179 20.5948 159.087 0 134.522 0Z" stroke="#000000" stroke-width="4.58333" stroke-linecap="round" stroke-linejoin="round" stroke-miterlimit="10" fill="#DEC9A2" fill-rule="evenodd" transform="matrix(-1 0 0 1 1147.5 1559.5)"/><text font-family="Arial,Arial_MSFontService,sans-serif" font-weight="400" font-size="55" transform="matrix(1 0 0 1 992.89 1625)">10kΩ</text><text font-family="Arial,Arial_MSFontService,sans-serif" font-weight="400" font-size="55" transform="matrix(1 0 0 1 1122.37 1625)"> </text><path d="M930.875 1609 930.875 1714 924 1707.12 1386 1707.12C1389.8 1707.12 1392.88 1710.2 1392.88 1714 1392.88 1717.8 1389.8 1720.88 1386 1720.88L924 1720.88C920.203 1720.88 917.125 1717.8 917.125 1714L917.125 1609C917.125 1605.2 920.203 1602.13 924 1602.13 927.797 1602.13 930.875 1605.2 930.875 1609ZM903.375 1609C903.375 1597.61 912.609 1588.38 924 1588.38 935.391 1588.38 944.625 1597.61 944.625 1609 944.625 1620.39 935.391 1629.63 924 1629.63 912.609 1629.63 903.375 1620.39 903.375 1609ZM1386 1693.38C1397.39 1693.38 1406.62 1702.61 1406.62 1714 1406.62 1725.39 1397.39 1734.62 1386 1734.62 1374.61 1734.62 1365.38 1725.39 1365.38 1714 1365.38 1702.61 1374.61 1693.38 1386 1693.38Z"/><path d="M0 0 30.9999 0 30.9999 38.5361C30.9999 46.5244 24.0603 53.0003 15.5 53.0003 6.93959 53.0003 0 46.5244 0 38.5361Z" stroke="#000000" stroke-width="4.58333" stroke-linecap="round" stroke-linejoin="round" stroke-miterlimit="10" fill="#BFBFBF" fill-rule="evenodd" transform="matrix(-1 0 0 1 1019.5 1475.5)"/><path d="M0 0 29.9999 0 29.9999 38.5361C29.9999 46.5244 23.2842 53.0003 15 53.0003 6.71573 53.0003 0 46.5244 0 38.5361Z" stroke="#000000" stroke-width="4.58333" stroke-linecap="round" stroke-linejoin="round" stroke-miterlimit="10" fill="#BFBFBF" fill-rule="evenodd" transform="matrix(-1 0 0 1 1118.5 1475.5)"/><path d="M82.5672 0C112.296 0 137.804 6.0078 148.7 14.5701L151.96 18.0617 152.544 18.4213C159.005 24.322 163 32.4737 163 41.4778L163 49.6987 163 54.7841 163 72.716 160.55 83.8019 160.521 86.2349C159.361 95.2042 156.123 104.843 151.083 113.024 146.042 121.206 140.154 126.381 134.709 128.135L129.26 128.143 127.474 128.999C122.073 129.08 115.922 124.187 110.74 115.548L108.795 111.556 108.424 111.556 106.719 107.913C102.616 103.727 93.0098 100.79 81.814 100.79 70.6182 100.79 61.0121 103.727 56.9087 107.913L55.2041 111.556 53.524 111.556 52.8321 113.024C47.7916 121.206 41.9033 126.381 36.4583 128.135L31.0094 128.143 29.2235 128.999C22.0222 129.107 13.4878 120.372 7.69414 105.706 5.76319 100.817 4.31924 95.7322 3.36174 90.7229L2.87502 85.7237 0 72.716 0 54.7841 0 49.6987 0 41.4778C0 32.4737 3.99541 24.322 10.4555 18.4213L16.0642 14.9674 16.4351 14.5701C27.3309 6.0078 52.8382 0 82.5672 0Z" stroke="#000000" stroke-width="4.58333" stroke-linecap="round" stroke-linejoin="round" stroke-miterlimit="10" fill="#4E95D9" fill-rule="evenodd" transform="matrix(-1 0 0 1 1134.5 1356.5)"/><text fill="#FFFFFF" font-family="Arial,Arial_MSFontService,sans-serif" font-weight="400" font-size="55" transform="matrix(1 0 0 1 983.618 1427)">0.47μ</text><text fill="#FFFFFF" font-family="Arial,Arial_MSFontService,sans-serif" font-weight="400" font-size="55" transform="matrix(1 0 0 1 1121.69 1427)"> </text><path d="M931.875 1342 931.875 1606.37C931.875 1610.17 928.797 1613.25 925 1613.25 921.203 1613.25 918.125 1610.17 918.125 1606.37L918.125 1342C918.125 1338.2 921.203 1335.12 925 1335.12 928.797 1335.12 931.875 1338.2 931.875 1342ZM904.375 1342C904.375 1330.61 913.609 1321.38 925 1321.38 936.391 1321.38 945.625 1330.61 945.625 1342 945.625 1353.39 936.391 1362.62 925 1362.62 913.609 1362.62 904.375 1353.39 904.375 1342ZM945.625 1606.37C945.625 1617.77 936.391 1627 925 1627 913.61 1627 904.375 1617.77 904.375 1606.37 904.375 1594.98 913.609 1585.75 925 1585.75 936.391 1585.75 945.625 1594.98 945.625 1606.37Z"/><path d="M1190.87 1509 1190.88 1606.3C1190.88 1610.1 1187.8 1613.18 1184 1613.18 1180.2 1613.18 1177.13 1610.1 1177.13 1606.3L1177.12 1509C1177.12 1505.2 1180.2 1502.13 1184 1502.13 1187.8 1502.13 1190.87 1505.2 1190.87 1509ZM1163.37 1509C1163.37 1497.61 1172.61 1488.38 1184 1488.38 1195.39 1488.38 1204.62 1497.61 1204.62 1509 1204.62 1520.39 1195.39 1529.63 1184 1529.63 1172.61 1529.63 1163.37 1520.39 1163.37 1509ZM1204.63 1606.3C1204.63 1617.69 1195.39 1626.93 1184 1626.93 1172.61 1626.93 1163.38 1617.69 1163.38 1606.3 1163.38 1594.91 1172.61 1585.68 1184 1585.68 1195.39 1585.68 1204.63 1594.91 1204.63 1606.3Z"/><path d="M924 1502.13 998.25 1502.13C1002.05 1502.13 1005.12 1505.2 1005.12 1509 1005.12 1512.8 1002.05 1515.88 998.25 1515.88L924 1515.88C920.203 1515.88 917.125 1512.8 917.125 1509 917.125 1505.2 920.203 1502.13 924 1502.13ZM924 1529.63C912.609 1529.63 903.375 1520.39 903.375 1509 903.375 1497.61 912.609 1488.38 924 1488.38 935.391 1488.38 944.625 1497.61 944.625 1509 944.625 1520.39 935.391 1529.63 924 1529.63ZM998.25 1488.38C1009.64 1488.38 1018.88 1497.61 1018.88 1509 1018.87 1520.39 1009.64 1529.63 998.25 1529.63 986.859 1529.63 977.625 1520.39 977.625 1509 977.625 1497.61 986.859 1488.38 998.25 1488.38Z"/><path d="M1103 1502.13 1386.25 1502.13C1390.05 1502.13 1393.13 1505.2 1393.13 1509 1393.13 1512.8 1390.05 1515.88 1386.25 1515.88L1103 1515.88C1099.2 1515.88 1096.13 1512.8 1096.13 1509 1096.13 1505.2 1099.2 1502.13 1103 1502.13ZM1103 1529.63C1091.61 1529.63 1082.38 1520.39 1082.38 1509 1082.38 1497.61 1091.61 1488.38 1103 1488.38 1114.39 1488.38 1123.63 1497.61 1123.63 1509 1123.63 1520.39 1114.39 1529.63 1103 1529.63ZM1386.25 1488.38C1397.64 1488.38 1406.88 1497.61 1406.88 1509 1406.88 1520.39 1397.64 1529.63 1386.25 1529.63 1374.86 1529.63 1365.63 1520.39 1365.63 1509 1365.63 1497.61 1374.86 1488.38 1386.25 1488.38Z"/><path d="M950.257 1286.24 1388.7 1367.75C1392.43 1368.45 1394.89 1372.04 1394.2 1375.77 1393.5 1379.5 1389.92 1381.97 1386.18 1381.27L947.743 1299.76C944.01 1299.07 941.547 1295.48 942.241 1291.74 942.935 1288.01 946.524 1285.55 950.257 1286.24ZM945.23 1313.28C934.031 1311.2 926.641 1300.43 928.723 1289.23 930.805 1278.03 941.571 1270.64 952.77 1272.72 963.969 1274.8 971.36 1285.57 969.278 1296.77 967.196 1307.97 956.429 1315.36 945.23 1313.28ZM1391.21 1354.24C1402.41 1356.32 1409.8 1367.08 1407.72 1378.28 1405.63 1389.48 1394.87 1396.87 1383.67 1394.79 1372.47 1392.71 1365.08 1381.94 1367.16 1370.74 1369.24 1359.54 1380.01 1352.15 1391.21 1354.24Z"/><text font-family="Arial,Arial_MSFontService,sans-serif" font-weight="400" font-size="55" transform="matrix(1 0 0 1 841.887 1250)">C</text><text font-family="Arial,Arial_MSFontService,sans-serif" font-weight="400" font-size="55" transform="matrix(1 0 0 1 881.418 1250)"> </text><text font-family="Arial,Arial_MSFontService,sans-serif" font-weight="400" font-size="55" transform="matrix(1 0 0 1 843.319 1423)">E</text><text font-family="Arial,Arial_MSFontService,sans-serif" font-weight="400" font-size="55" transform="matrix(1 0 0 1 879.986 1423)"> </text><text font-family="Arial,Arial_MSFontService,sans-serif" font-weight="400" font-size="55" transform="matrix(1 0 0 1 560.958 1210)">NJL7502L</text></g></svg>