<svg width="3186" height="2191" xmlns="http://www.w3.org/2000/svg" xmlns:xlink="http://www.w3.org/1999/xlink" xml:space="preserve" overflow="hidden"><defs><clipPath id="clip0"><rect x="485" y="128" width="3186" height="2191"/></clipPath></defs><g clip-path="url(#clip0)" transform="translate(-485 -128)"><rect x="485" y="128" width="3186" height="2191" fill="#FFFFFF"/><path d="M3544.94 1543.5 3544.94 1642.19C3544.94 1644.09 3543.4 1645.63 3541.5 1645.63 3539.6 1645.63 3538.06 1644.09 3538.06 1642.19L3538.06 1543.5C3538.06 1541.6 3539.6 1540.06 3541.5 1540.06 3543.4 1540.06 3544.94 1541.6 3544.94 1543.5ZM3527.75 1543.5C3527.75 1535.91 3533.91 1529.75 3541.5 1529.75 3549.09 1529.75 3555.25 1535.91 3555.25 1543.5 3555.25 1551.09 3549.09 1557.25 3541.5 1557.25 3533.91 1557.25 3527.75 1551.09 3527.75 1543.5ZM3555.25 1642.19C3555.25 1649.78 3549.09 1655.94 3541.5 1655.94 3533.91 1655.94 3527.75 1649.78 3527.75 1642.19 3527.75 1634.6 3533.91 1628.44 3541.5 1628.44 3549.09 1628.44 3555.25 1634.6 3555.25 1642.19Z" fill="#4EA72E"/><path d="M3.4375 0 3.4375 136 0 132.562 271 132.562C272.898 132.562 274.437 134.101 274.437 136 274.437 137.898 272.898 139.437 271 139.437L0 139.437C-1.89848 139.437-3.4375 137.898-3.4375 136L-3.4375 0C-3.4375-1.89848-1.89848-3.4375 0-3.4375 1.89848-3.4375 3.4375-1.89848 3.4375 0ZM-13.75 0C-13.75-7.59392-7.59392-13.75 0-13.75 7.59392-13.75 13.75-7.59392 13.75 0 13.75 7.59392 7.59392 13.75 0 13.75-7.59392 13.75-13.75 7.59392-13.75 0Z" fill="#C00000" transform="matrix(1 0 0 -1 1984.5 1727.5)"/><path d="M2946.77 2144.47C2931.21 2144.47 2918.59 2157.08 2918.59 2172.64 2918.59 2188.21 2931.21 2200.82 2946.77 2200.82 2962.33 2200.82 2974.94 2188.21 2974.94 2172.64 2974.94 2157.08 2962.33 2144.47 2946.77 2144.47ZM2473.72 2144.47C2458.16 2144.47 2445.55 2157.08 2445.55 2172.64 2445.55 2188.21 2458.16 2200.82 2473.72 2200.82 2489.28 2200.82 2501.9 2188.21 2501.9 2172.64 2501.9 2157.08 2489.28 2144.47 2473.72 2144.47ZM3204.46 1284.86C3188.9 1284.86 3176.29 1297.47 3176.29 1313.03 3176.29 1328.59 3188.9 1341.21 3204.46 1341.21 3220.02 1341.21 3232.64 1328.59 3232.64 1313.03 3232.64 1297.47 3220.02 1284.86 3204.46 1284.86ZM2387.21 1262.77C2371.65 1262.77 2359.03 1275.38 2359.03 1290.94 2359.03 1306.51 2371.65 1319.12 2387.21 1319.12 2402.77 1319.12 2415.39 1306.51 2415.39 1290.94 2415.39 1275.38 2402.77 1262.77 2387.21 1262.77ZM2362.14 1057.5 3231.86 1057.5C3241.05 1057.5 3248.5 1064.95 3248.5 1074.14L3248.5 2158.49C3248.5 2167.68 3241.05 2175.13 3231.86 2175.13L3031.78 2175.13 2991.41 2215.5 2432.61 2215.5 2392.24 2175.13 2362.14 2175.13C2352.95 2175.13 2345.5 2167.68 2345.5 2158.49L2345.5 1074.14C2345.5 1064.95 2352.95 1057.5 2362.14 1057.5Z" stroke="#000000" stroke-width="4.58333" stroke-linecap="round" stroke-linejoin="round" stroke-miterlimit="10" fill="#0B76A0" fill-rule="evenodd"/><text fill="#FFFFFF" font-family="Arial,Arial_MSFontService,sans-serif" font-weight="700" font-size="83" transform="matrix(1 0 0 1 2638.1 1666)">Arduino</text><text fill="#FFFFFF" font-family="Arial,Arial_MSFontService,sans-serif" font-weight="700" font-size="64" transform="matrix(1 0 0 1 2954.35 1666)"> </text><rect x="2891.5" y="998.5" width="197" height="221" stroke="#000000" stroke-width="4.58333" stroke-linecap="round" stroke-linejoin="round" stroke-miterlimit="10" fill="#D9D9D9"/><rect x="3130.5" y="1097.5" width="107" height="122" stroke="#000000" stroke-width="4.58333" stroke-linecap="round" stroke-linejoin="round" stroke-miterlimit="10" fill="#D9D9D9"/><path d="M3152.5 1158.5C3152.5 1140.83 3166.6 1126.5 3184 1126.5 3201.4 1126.5 3215.5 1140.83 3215.5 1158.5 3215.5 1176.17 3201.4 1190.5 3184 1190.5 3166.6 1190.5 3152.5 1176.17 3152.5 1158.5Z" stroke="#000000" stroke-width="4.58333" stroke-linecap="round" stroke-linejoin="round" stroke-miterlimit="10" fill="#FFFFFF" fill-rule="evenodd"/><rect x="2409.5" y="1059.5" width="138" height="194" stroke="#000000" stroke-width="4.58333" stroke-linecap="round" stroke-linejoin="round" stroke-miterlimit="10" fill="#595959"/><rect x="2402.5" y="1023.5" width="151" height="36.0001" stroke="#000000" stroke-width="4.58333" stroke-linecap="round" stroke-linejoin="round" stroke-miterlimit="10" fill="#595959"/><path d="M2752.5 2185.21 2752.5 2117.84 2760.84 2110.5 2785.37 2110.5 2793.25 2117.43 2801.13 2110.5 2825.66 2110.5 2834.14 2117.97 2834.14 2117.84 2842.49 2110.5 2867.01 2110.5 2875.5 2117.97 2875.5 2185.27 2866.14 2193.5 2843.56 2193.5 2834.14 2185.21 2834.14 2185.27 2824.78 2193.5 2802.21 2193.5 2793.35 2185.71 2784.49 2193.5 2761.92 2193.5Z" stroke="#000000" stroke-width="4.58333" stroke-linecap="round" stroke-linejoin="round" stroke-miterlimit="10" fill="#595959" fill-rule="evenodd"/><rect x="2764.5" y="2162.5" width="17.0002" height="16.9998" stroke="#000000" stroke-width="4.58333" stroke-linecap="round" stroke-linejoin="round" stroke-miterlimit="10" fill="#E0DD6E"/><rect x="2764.5" y="2124.5" width="17.0002" height="17.0002" stroke="#000000" stroke-width="4.58333" stroke-linecap="round" stroke-linejoin="round" stroke-miterlimit="10" fill="#E0DD6E"/><rect x="2804.5" y="2162.5" width="16.9998" height="16.9998" stroke="#000000" stroke-width="4.58333" stroke-linecap="round" stroke-linejoin="round" stroke-miterlimit="10" fill="#E0DD6E"/><rect x="2804.5" y="2124.5" width="16.9998" height="17.0002" stroke="#000000" stroke-width="4.58333" stroke-linecap="round" stroke-linejoin="round" stroke-miterlimit="10" fill="#E0DD6E"/><rect x="2845.5" y="2162.5" width="16.9998" height="16.9998" stroke="#000000" stroke-width="4.58333" stroke-linecap="round" stroke-linejoin="round" stroke-miterlimit="10" fill="#E0DD6E"/><rect x="2845.5" y="2124.5" width="16.9998" height="17.0002" stroke="#000000" stroke-width="4.58333" stroke-linecap="round" stroke-linejoin="round" stroke-miterlimit="10" fill="#E0DD6E"/><rect x="3183.5" y="1354.5" width="44" height="423" stroke="#000000" stroke-width="4.58333" stroke-linecap="round" stroke-linejoin="round" stroke-miterlimit="10" fill="#595959"/><rect x="3196.5" y="1367.5" width="17.9998" height="18.0002" stroke="#000000" stroke-width="4.58333" stroke-linecap="round" stroke-linejoin="round" stroke-miterlimit="10"/><rect x="3196.5" y="1409.5" width="17.9998" height="18.0002" stroke="#000000" stroke-width="4.58333" stroke-linecap="round" stroke-linejoin="round" stroke-miterlimit="10"/><rect x="3196.5" y="1451.5" width="17.9998" height="17.9999" stroke="#000000" stroke-width="4.58333" stroke-linecap="round" stroke-linejoin="round" stroke-miterlimit="10"/><rect x="3196.5" y="1494.5" width="17.9998" height="17.9999" stroke="#000000" stroke-width="4.58333" stroke-linecap="round" stroke-linejoin="round" stroke-miterlimit="10"/><rect x="3196.5" y="1536.5" width="17.9998" height="17.9999" stroke="#000000" stroke-width="4.58333" stroke-linecap="round" stroke-linejoin="round" stroke-miterlimit="10"/><rect x="3196.5" y="1578.5" width="17.9998" height="17.9999" stroke="#000000" stroke-width="4.58333" stroke-linecap="round" stroke-linejoin="round" stroke-miterlimit="10"/><rect x="3196.5" y="1620.5" width="17.9998" height="18.9999" stroke="#000000" stroke-width="4.58333" stroke-linecap="round" stroke-linejoin="round" stroke-miterlimit="10"/><rect x="3196.5" y="1663.5" width="17.9998" height="18.0002" stroke="#000000" stroke-width="4.58333" stroke-linecap="round" stroke-linejoin="round" stroke-miterlimit="10"/><rect x="3196.5" y="1705.5" width="17.9998" height="18.0002" stroke="#000000" stroke-width="4.58333" stroke-linecap="round" stroke-linejoin="round" stroke-miterlimit="10"/><rect x="3196.5" y="1747.5" width="17.9998" height="17.9999" stroke="#000000" stroke-width="4.58333" stroke-linecap="round" stroke-linejoin="round" stroke-miterlimit="10"/><rect x="3183.5" y="1806.5" width="44" height="339" stroke="#000000" stroke-width="4.58333" stroke-linecap="round" stroke-linejoin="round" stroke-miterlimit="10" fill="#595959"/><rect x="3196.5" y="1819.5" width="17.9998" height="17.9999" stroke="#000000" stroke-width="4.58333" stroke-linecap="round" stroke-linejoin="round" stroke-miterlimit="10"/><rect x="3196.5" y="1861.5" width="17.9998" height="18.0002" stroke="#000000" stroke-width="4.58333" stroke-linecap="round" stroke-linejoin="round" stroke-miterlimit="10"/><rect x="3196.5" y="1904.5" width="17.9998" height="18.0002" stroke="#000000" stroke-width="4.58333" stroke-linecap="round" stroke-linejoin="round" stroke-miterlimit="10"/><rect x="3196.5" y="1946.5" width="17.9998" height="17.9999" stroke="#000000" stroke-width="4.58333" stroke-linecap="round" stroke-linejoin="round" stroke-miterlimit="10"/><rect x="3196.5" y="1988.5" width="17.9998" height="17.9999" stroke="#000000" stroke-width="4.58333" stroke-linecap="round" stroke-linejoin="round" stroke-miterlimit="10"/><rect x="3196.5" y="2031.5" width="17.9998" height="17.9999" stroke="#000000" stroke-width="4.58333" stroke-linecap="round" stroke-linejoin="round" stroke-miterlimit="10"/><rect x="3196.5" y="2073.5" width="17.9998" height="17.9998" stroke="#000000" stroke-width="4.58333" stroke-linecap="round" stroke-linejoin="round" stroke-miterlimit="10"/><rect x="3196.5" y="2115.5" width="17.9998" height="18.0002" stroke="#000000" stroke-width="4.58333" stroke-linecap="round" stroke-linejoin="round" stroke-miterlimit="10"/><rect x="2365.5" y="1891.5" width="44" height="254" stroke="#000000" stroke-width="4.58333" stroke-linecap="round" stroke-linejoin="round" stroke-miterlimit="10" fill="#595959"/><rect x="2378.5" y="1904.5" width="18.0002" height="18.0002" stroke="#000000" stroke-width="4.58333" stroke-linecap="round" stroke-linejoin="round" stroke-miterlimit="10"/><rect x="2378.5" y="1946.5" width="18.0002" height="17.9999" stroke="#000000" stroke-width="4.58333" stroke-linecap="round" stroke-linejoin="round" stroke-miterlimit="10"/><rect x="2378.5" y="1988.5" width="18.0002" height="17.9999" stroke="#000000" stroke-width="4.58333" stroke-linecap="round" stroke-linejoin="round" stroke-miterlimit="10"/><rect x="2378.5" y="2031.5" width="18.0002" height="17.9999" stroke="#000000" stroke-width="4.58333" stroke-linecap="round" stroke-linejoin="round" stroke-miterlimit="10"/><rect x="2378.5" y="2073.5" width="18.0002" height="17.9998" stroke="#000000" stroke-width="4.58333" stroke-linecap="round" stroke-linejoin="round" stroke-miterlimit="10"/><rect x="2378.5" y="2115.5" width="18.0002" height="18.0002" stroke="#000000" stroke-width="4.58333" stroke-linecap="round" stroke-linejoin="round" stroke-miterlimit="10"/><rect x="2366.5" y="1508.5" width="44" height="339" stroke="#000000" stroke-width="4.58333" stroke-linecap="round" stroke-linejoin="round" stroke-miterlimit="10" fill="#595959"/><rect x="2379.5" y="1520.5" width="18.0002" height="18.0002" stroke="#000000" stroke-width="4.58333" stroke-linecap="round" stroke-linejoin="round" stroke-miterlimit="10"/><rect x="2379.5" y="1563.5" width="18.0002" height="18.0002" stroke="#000000" stroke-width="4.58333" stroke-linecap="round" stroke-linejoin="round" stroke-miterlimit="10"/><rect x="2379.5" y="1605.5" width="18.0002" height="17.9999" stroke="#000000" stroke-width="4.58333" stroke-linecap="round" stroke-linejoin="round" stroke-miterlimit="10"/><rect x="2379.5" y="1647.5" width="18.0002" height="17.9999" stroke="#000000" stroke-width="4.58333" stroke-linecap="round" stroke-linejoin="round" stroke-miterlimit="10"/><rect x="2379.5" y="1690.5" width="18.0002" height="17.9999" stroke="#000000" stroke-width="4.58333" stroke-linecap="round" stroke-linejoin="round" stroke-miterlimit="10"/><rect x="2379.5" y="1732.5" width="18.0002" height="17.9999" stroke="#000000" stroke-width="4.58333" stroke-linecap="round" stroke-linejoin="round" stroke-miterlimit="10"/><rect x="2379.5" y="1774.5" width="18.0002" height="18.0002" stroke="#000000" stroke-width="4.58333" stroke-linecap="round" stroke-linejoin="round" stroke-miterlimit="10"/><rect x="2379.5" y="1817.5" width="18.0002" height="18.0002" stroke="#000000" stroke-width="4.58333" stroke-linecap="round" stroke-linejoin="round" stroke-miterlimit="10"/><rect x="2891.5" y="949.5" width="197" height="49.0002" stroke="#000000" stroke-width="4.58333" stroke-linecap="round" stroke-linejoin="round" stroke-miterlimit="10" fill="#D9D9D9"/><text fill="#FFFFFF" font-family="Arial,Arial_MSFontService,sans-serif" font-weight="400" font-size="41" transform="matrix(1 0 0 1 2423.27 1714)">5V</text><text fill="#FFFFFF" font-family="Arial,Arial_MSFontService,sans-serif" font-weight="400" font-size="41" transform="matrix(1 0 0 1 2473.68 1714)"> </text><text fill="#FFFFFF" font-family="Arial,Arial_MSFontService,sans-serif" font-weight="400" font-size="41" transform="matrix(1 0 0 1 2423.27 1798)">GND</text><text fill="#FFFFFF" font-family="Arial,Arial_MSFontService,sans-serif" font-weight="400" font-size="41" transform="matrix(1 0 0 1 2514.93 1798)"> </text><text fill="#FFFFFF" font-family="Arial,Arial_MSFontService,sans-serif" font-weight="400" font-size="41" transform="matrix(1 0 0 1 2423.27 1929)">A0</text><text fill="#FFFFFF" font-family="Arial,Arial_MSFontService,sans-serif" font-weight="400" font-size="41" transform="matrix(1 0 0 1 2473.68 1929)"> </text><text fill="#FFFFFF" font-family="Arial,Arial_MSFontService,sans-serif" font-weight="400" font-size="41" transform="matrix(1 0 0 1 3084.35 1518)">GND</text><text fill="#FFFFFF" font-family="Arial,Arial_MSFontService,sans-serif" font-weight="400" font-size="41" transform="matrix(1 0 0 1 3176.02 1518)"> </text><text fill="#FFFFFF" font-family="Arial,Arial_MSFontService,sans-serif" font-weight="400" font-size="41" transform="matrix(1 0 0 1 3049.97 2055)">GPIO2</text><text fill="#FFFFFF" font-family="Arial,Arial_MSFontService,sans-serif" font-weight="400" font-size="41" transform="matrix(1 0 0 1 3176.02 2055)"> </text><text font-family="Arial,Arial_MSFontService,sans-serif" font-weight="400" font-size="41" transform="matrix(1 0 0 1 1901.51 1707)">C</text><text font-family="Arial,Arial_MSFontService,sans-serif" font-weight="400" font-size="41" transform="matrix(1 0 0 1 1931.31 1707)"> </text><text font-family="Arial,Arial_MSFontService,sans-serif" font-weight="400" font-size="41" transform="matrix(1 0 0 1 1902.66 1836)">E</text><text font-family="Arial,Arial_MSFontService,sans-serif" font-weight="400" font-size="41" transform="matrix(1 0 0 1 1930.16 1836)"> </text><text font-family="Arial,Arial_MSFontService,sans-serif" font-weight="400" font-size="55" transform="matrix(1 0 0 1 1706.74 1497)">Optical</text><text font-family="Arial,Arial_MSFontService,sans-serif" font-weight="400" font-size="55" transform="matrix(1 0 0 1 1705.29 1563)">Sensor</text><text font-family="Arial,Arial_MSFontService,sans-serif" font-weight="400" font-size="55" transform="matrix(1 0 0 1 1649.15 1629)">(NJL7502L)</text><path d="M2197.5 1781.06 2387.14 1781.06C2389.03 1781.06 2390.57 1782.6 2390.57 1784.5 2390.57 1786.4 2389.03 1787.94 2387.14 1787.94L2197.5 1787.94C2195.6 1787.94 2194.06 1786.4 2194.06 1784.5 2194.06 1782.6 2195.6 1781.06 2197.5 1781.06ZM2197.5 1798.25C2189.91 1798.25 2183.75 1792.09 2183.75 1784.5 2183.75 1776.91 2189.91 1770.75 2197.5 1770.75 2205.09 1770.75 2211.25 1776.91 2211.25 1784.5 2211.25 1792.09 2205.09 1798.25 2197.5 1798.25ZM2387.14 1770.75C2394.73 1770.75 2400.89 1776.91 2400.89 1784.5 2400.89 1792.09 2394.73 1798.25 2387.14 1798.25 2379.54 1798.25 2373.39 1792.09 2373.39 1784.5 2373.39 1776.91 2379.54 1770.75 2387.14 1770.75Z"/><path d="M1949.5 1781.06 2036.01 1781.06C2037.91 1781.06 2039.45 1782.6 2039.45 1784.5 2039.45 1786.4 2037.91 1787.94 2036.01 1787.94L1949.5 1787.94C1947.6 1787.94 1946.06 1786.4 1946.06 1784.5 1946.06 1782.6 1947.6 1781.06 1949.5 1781.06ZM1949.5 1798.25C1941.91 1798.25 1935.75 1792.09 1935.75 1784.5 1935.75 1776.91 1941.91 1770.75 1949.5 1770.75 1957.09 1770.75 1963.25 1776.91 1963.25 1784.5 1963.25 1792.09 1957.09 1798.25 1949.5 1798.25ZM2036.01 1770.75C2043.6 1770.75 2049.76 1776.91 2049.76 1784.5 2049.76 1792.09 2043.6 1798.25 2036.01 1798.25 2028.42 1798.25 2022.26 1792.09 2022.26 1784.5 2022.26 1776.91 2028.42 1770.75 2036.01 1770.75Z" fill="#4EA72E"/><path d="M2194.06 1833.5 2194.06 1748.5 2197.5 1751.94 2149.5 1751.94C2147.6 1751.94 2146.06 1750.4 2146.06 1748.5 2146.06 1746.6 2147.6 1745.06 2149.5 1745.06L2197.5 1745.06C2199.4 1745.06 2200.94 1746.6 2200.94 1748.5L2200.94 1833.5C2200.94 1835.4 2199.4 1836.94 2197.5 1836.94 2195.6 1836.94 2194.06 1835.4 2194.06 1833.5ZM2211.25 1833.5C2211.25 1841.09 2205.09 1847.25 2197.5 1847.25 2189.91 1847.25 2183.75 1841.09 2183.75 1833.5 2183.75 1825.91 2189.91 1819.75 2197.5 1819.75 2205.09 1819.75 2211.25 1825.91 2211.25 1833.5ZM2149.5 1762.25C2141.91 1762.25 2135.75 1756.09 2135.75 1748.5 2135.75 1740.91 2141.91 1734.75 2149.5 1734.75 2157.09 1734.75 2163.25 1740.91 2163.25 1748.5 2163.25 1756.09 2157.09 1762.25 2149.5 1762.25Z"/><path d="M3.4375 0 3.4375 84.9999 0 81.5624 48.0001 81.5624C49.8986 81.5624 51.4376 83.1014 51.4376 84.9999 51.4376 86.8984 49.8986 88.4374 48.0001 88.4374L0 88.4374C-1.89848 88.4374-3.4375 86.8984-3.4375 84.9999L-3.4375 0C-3.4375-1.89848-1.89848-3.4375 0-3.4375 1.89848-3.4375 3.4375-1.89848 3.4375 0ZM-13.75 0C-13.75-7.59392-7.59392-13.75 0-13.75 7.59392-13.75 13.75-7.59392 13.75 0 13.75 7.59392 7.59392 13.75 0 13.75-7.59392 13.75-13.75 7.59392-13.75 0ZM48.0001 71.2499C55.594 71.2499 61.7501 77.406 61.7501 84.9999 61.7501 92.5938 55.594 98.7499 48.0001 98.7499 40.4062 98.7499 34.2501 92.5938 34.2501 84.9999 34.2501 77.406 40.4062 71.2499 48.0001 71.2499Z" fill="#4EA72E" transform="matrix(1 0 0 -1 2038.5 1833.5)"/><path d="M0 0 18.9999 0 18.9999 23.994C18.9999 28.9679 14.7466 33 9.49995 33 4.25328 33 0 28.9679 0 23.994Z" stroke="#000000" stroke-width="4.58333" stroke-linecap="round" stroke-linejoin="round" stroke-miterlimit="10" fill="#BFBFBF" fill-rule="evenodd" transform="matrix(-1 0 0 1 2095.5 1724.5)"/><path d="M0 0 18.9999 0 18.9999 23.994C18.9999 28.9679 14.7466 33 9.49995 33 4.25328 33 0 28.9679 0 23.994Z" stroke="#000000" stroke-width="4.58333" stroke-linecap="round" stroke-linejoin="round" stroke-miterlimit="10" fill="#BFBFBF" fill-rule="evenodd" transform="matrix(-1 0 0 1 2157.5 1724.5)"/><path d="M51.6677 0C70.2712 0 86.233 3.77233 93.0511 9.14865L95.0915 11.341 95.457 11.5668C99.4995 15.2719 102 20.3904 102 26.0441L102 31.2061 102 34.3993 102 45.6588 100.467 52.6197 100.449 54.1474C99.7223 59.7793 97.6961 65.8314 94.5423 70.9686 91.3881 76.1058 87.7036 79.3555 84.2961 80.4565L80.8864 80.462 79.7688 80.9992C76.389 81.0502 72.54 77.9777 69.2974 72.5531L68.0803 70.0466 67.8479 70.0466 66.7813 67.7593C64.2137 65.131 58.2023 63.2868 51.1964 63.2868 44.1904 63.2868 38.1793 65.131 35.6115 67.7593L34.5448 70.0466 33.4935 70.0466 33.0605 70.9686C29.9063 76.1058 26.2216 79.3555 22.8144 80.4565L19.4046 80.462 18.287 80.9992C13.7807 81.0672 8.44022 75.5821 4.81473 66.3732 3.60641 63.3034 2.70283 60.1108 2.10366 56.9654L1.79909 53.8264 0 45.6588 0 34.3993 0 31.2061 0 26.0441C0 20.3904 2.50019 15.2719 6.54271 11.5668L10.0524 9.39812 10.2845 9.14865C17.1027 3.77233 33.0644 0 51.6677 0Z" stroke="#000000" stroke-width="4.58333" stroke-linecap="round" stroke-linejoin="round" stroke-miterlimit="10" fill="#4E95D9" fill-rule="evenodd" transform="matrix(-1 0 0 1 2167.5 1649.5)"/><text fill="#FFFFFF" font-family="Arial,Arial_MSFontService,sans-serif" font-weight="400" font-size="41" transform="matrix(1 0 0 1 2080.25 1691)">1μF</text><text fill="#FFFFFF" font-family="Arial,Arial_MSFontService,sans-serif" font-weight="400" font-size="41" transform="matrix(1 0 0 1 2151.87 1691)"> </text><path d="M8.49992 0C13.1943 0 16.9998 3.8471 16.9998 8.59272L16.9998 23.0559 16.9998 31.9839 16.9998 55 0 55 0 31.9839 0 23.0559 0 8.59272C0 3.8471 3.80555 0 8.49992 0Z" stroke="#000000" stroke-width="4.58333" stroke-linecap="round" stroke-linejoin="round" stroke-miterlimit="10" fill="#BFBFBF" fill-rule="evenodd" transform="matrix(1.83697e-16 1 1 -1.83697e-16 2034.5 1824.5)"/><path d="M0 0 16.9998 0 16.9998 22.6754 16.9998 30.6053 16.9998 45.4512C16.9998 50.1726 13.1943 54 8.49992 54 3.80555 54 0 50.1726 0 45.4512L0 30.6053 0 22.6754Z" stroke="#000000" stroke-width="4.58333" stroke-linecap="round" stroke-linejoin="round" stroke-miterlimit="10" fill="#BFBFBF" fill-rule="evenodd" transform="matrix(1.83697e-16 1 1 -1.83697e-16 2148.5 1825.5)"/><path d="M84.9218 0C82.9835 0 81.0909 0.202871 79.263 0.589217L76.7063 1.40885 76.4985 0.964703 72.4589 2.24089C67.43 3.47867 61.9012 4.16312 56.0974 4.16312 50.2935 4.16312 44.7645 3.47867 39.7356 2.24089L36.9781 1.36986 36.7274 1.54791 33.737 0.589217C31.9092 0.202871 30.0166 0 28.0783 0 12.5711 0 0 12.9837 0 29 0 45.0164 12.5711 58.0001 28.0783 58.0001 30.0166 58.0001 31.9092 57.7972 33.737 57.4109L35.15 56.958 35.156 56.9712 39.7356 55.5245C44.7645 54.2867 50.2935 53.6023 56.0974 53.6023 61.9012 53.6023 67.43 54.2867 72.4589 55.5245L74.6141 56.2055 74.8161 55.9852 79.263 57.4109C81.0909 57.7972 82.9835 58.0001 84.9218 58.0001 100.429 58.0001 113 45.0164 113 29 113 12.9837 100.429 0 84.9218 0Z" stroke="#000000" stroke-width="4.58333" stroke-linecap="round" stroke-linejoin="round" stroke-miterlimit="10" fill="#DEC9A2" fill-rule="evenodd" transform="matrix(-1 0 0 1 2174.5 1804.5)"/><text font-family="Arial,Arial_MSFontService,sans-serif" font-weight="400" font-size="41" transform="matrix(1 0 0 1 2068.78 1848)">10kΩ</text><text font-family="Arial,Arial_MSFontService,sans-serif" font-weight="400" font-size="41" transform="matrix(1 0 0 1 2166.17 1848)"> </text><path d="M1952.94 1784.5 1952.94 1913.5 1949.5 1910.06 2387.5 1910.06C2389.4 1910.06 2390.94 1911.6 2390.94 1913.5 2390.94 1915.4 2389.4 1916.94 2387.5 1916.94L1949.5 1916.94C1947.6 1916.94 1946.06 1915.4 1946.06 1913.5L1946.06 1784.5C1946.06 1782.6 1947.6 1781.06 1949.5 1781.06 1951.4 1781.06 1952.94 1782.6 1952.94 1784.5ZM1935.75 1784.5C1935.75 1776.91 1941.91 1770.75 1949.5 1770.75 1957.09 1770.75 1963.25 1776.91 1963.25 1784.5 1963.25 1792.09 1957.09 1798.25 1949.5 1798.25 1941.91 1798.25 1935.75 1792.09 1935.75 1784.5ZM2387.5 1899.75C2395.09 1899.75 2401.25 1905.91 2401.25 1913.5 2401.25 1921.09 2395.09 1927.25 2387.5 1927.25 2379.91 1927.25 2373.75 1921.09 2373.75 1913.5 2373.75 1905.91 2379.91 1899.75 2387.5 1899.75Z" fill="#4EA72E"/><path d="M2258.94 1591.5 2258.94 1698.5 2255.5 1695.06 2390.5 1695.06C2392.4 1695.06 2393.94 1696.6 2393.94 1698.5 2393.94 1700.4 2392.4 1701.94 2390.5 1701.94L2255.5 1701.94C2253.6 1701.94 2252.06 1700.4 2252.06 1698.5L2252.06 1591.5C2252.06 1589.6 2253.6 1588.06 2255.5 1588.06 2257.4 1588.06 2258.94 1589.6 2258.94 1591.5ZM2390.5 1684.75C2398.09 1684.75 2404.25 1690.91 2404.25 1698.5 2404.25 1706.09 2398.09 1712.25 2390.5 1712.25 2382.91 1712.25 2376.75 1706.09 2376.75 1698.5 2376.75 1690.91 2382.91 1684.75 2390.5 1684.75Z" fill="#C00000"/><path d="M1918.74 1775.5 1921.27 1775.5 1931.22 1775.5 1933.09 1775.5 1938.56 1775.5 1938.56 1775.5 1948.39 1775.5C1952.32 1775.5 1955.5 1778.86 1955.5 1783 1955.5 1787.14 1952.32 1790.5 1948.39 1790.5L1935.31 1790.5 1935.31 1790.5 1933.09 1790.5 1931.22 1790.5 1921.27 1790.5 1919.6 1790.5 1919.6 1790.5 1909.05 1790.5 1909.05 1790.5 1874.15 1790.5 1874.15 1790.5 1861.07 1790.5 1861.07 1790.5 1858.55 1790.5 1835.5 1790.5 1835.5 1775.5 1858.55 1775.5 1864.32 1775.5 1912.3 1775.5 1912.3 1775.5 1915.4 1775.5 1918.74 1775.5Z" stroke="#000000" stroke-width="4.58333" stroke-linecap="round" stroke-linejoin="round" stroke-miterlimit="10" fill="#BFBFBF" fill-rule="evenodd"/><path d="M1919.75 1719.5 1932.26 1719.5 1934.13 1719.5 1941.04 1719.5 1974.53 1719.5 1984.38 1719.5C1988.31 1719.5 1991.5 1722.85 1991.5 1726.98 1991.5 1731.1 1988.31 1734.45 1984.38 1734.45L1971.28 1734.45 1971.28 1734.45 1950.89 1734.45 1950.89 1734.45 1937.79 1734.45 1937.79 1734.45 1936.31 1734.45 1936.31 1734.45 1932.26 1734.45 1932.26 1734.45 1922.29 1734.45 1922.28 1734.45 1919.75 1734.45 1914.11 1734.45 1912.44 1734.45 1909.18 1734.45 1874.96 1734.45 1843.82 1766.5 1835.5 1766.5 1835.5 1726.89 1835.5 1719.5 1858.6 1719.5 1861.12 1719.5 1864.37 1719.5 1874.22 1719.5 1909.18 1719.5 1912.44 1719.5 1914.11 1719.5 1919.75 1719.5Z" stroke="#000000" stroke-width="4.58333" stroke-linecap="round" stroke-linejoin="round" stroke-miterlimit="10" fill="#BFBFBF" fill-rule="evenodd"/><rect x="0" y="0" width="16.0002" height="91.0001" stroke="#000000" stroke-width="4.58333" stroke-linecap="round" stroke-linejoin="round" stroke-miterlimit="10" fill="#6A7E52" fill-opacity="0.498039" transform="matrix(-1 1.22465e-16 1.22465e-16 1 1900.5 1709.5)"/><path d="M0 0 58.6959 0 59.0391 0 59.0391 0.0302287 67.8263 0.802581C88.4704 4.48569 104 20.4116 104 39.4999 104 58.5883 88.4704 74.514 67.8263 78.1973L59.0391 78.9696 59.0391 78.9995 58.6978 78.9995 58.6959 78.9997 58.6941 78.9995 0 78.9995Z" stroke="#000000" stroke-width="4.58333" stroke-linecap="round" stroke-linejoin="round" stroke-miterlimit="10" fill="#6A7E52" fill-rule="evenodd" fill-opacity="0.498039" transform="matrix(-1 1.22465e-16 1.22465e-16 1 1884.5 1715.5)"/><path d="M3207.5 1500.06 3484.22 1500.06C3486.12 1500.06 3487.66 1501.6 3487.66 1503.5 3487.66 1505.4 3486.12 1506.94 3484.22 1506.94L3207.5 1506.94C3205.6 1506.94 3204.06 1505.4 3204.06 1503.5 3204.06 1501.6 3205.6 1500.06 3207.5 1500.06ZM3207.5 1517.25C3199.91 1517.25 3193.75 1511.09 3193.75 1503.5 3193.75 1495.91 3199.91 1489.75 3207.5 1489.75 3215.09 1489.75 3221.25 1495.91 3221.25 1503.5 3221.25 1511.09 3215.09 1517.25 3207.5 1517.25ZM3484.22 1489.75C3491.81 1489.75 3497.97 1495.91 3497.97 1503.5 3497.97 1511.09 3491.81 1517.25 3484.22 1517.25 3476.62 1517.25 3470.47 1511.09 3470.47 1503.5 3470.47 1495.91 3476.62 1489.75 3484.22 1489.75Z"/><path d="M0 0 39.6058 0 39.6058 0.000224858 47.0001 0.000224858 47.0001 23.0812 47.0001 25.5994 47.0001 28.8507 47.0001 38.6943 47.0001 73.6343 47.0001 76.8855 47.0001 78.5573 47.0001 86.7291 47.0001 96.6937 47.0001 98.5621 47.0001 104.04 47.0001 104.04 47.0001 113.884C47.0001 117.814 43.6528 121 39.5239 121 35.3951 121 32.0478 117.814 32.0478 113.884L32.0478 100.789 32.0481 100.789 32.0481 98.5621 32.0481 96.6937 32.0481 86.7291 32.0481 78.5573 32.0481 76.8855 32.0481 73.6343 32.0481 39.4309 0 8.31458Z" stroke="#000000" stroke-width="4.58333" stroke-linecap="round" stroke-linejoin="round" stroke-miterlimit="10" fill="#BFBFBF" fill-rule="evenodd" transform="matrix(-1 1.22465e-16 1.22465e-16 1 3524.5 1392.5)"/><path d="M0.000210316 0 14.0001 0 14.0001 22.9477 14.0001 28.6841 14.0001 76.4418 14.0001 76.442 14.0001 79.5294 14.0001 96.1362 14.0001 97.9938 14.0001 104.865 14.0001 138.138 14.0001 138.138 14.0001 147.925C14.0001 151.833 10.866 155 6.99994 155 3.13413 155 0 151.833 0 147.925L0 134.906 0.000210316 134.906 0.000210316 114.653 0 114.652 0 101.633 0.000210316 101.633 0.000210316 100.168 0 100.167 0 96.1362 0.000210316 96.1362 0.000210316 86.2298 0 86.2289 0 73.2098 0.000210316 73.2098 0.000210316 38.4718 0 38.4709 0 25.4518 0.000210316 25.4518 0.000210316 22.9477Z" stroke="#000000" stroke-width="4.58333" stroke-linecap="round" stroke-linejoin="round" stroke-miterlimit="10" fill="#BFBFBF" fill-rule="evenodd" transform="matrix(-1 1.22465e-16 1.22465e-16 1 3547.5 1392.5)"/><rect x="3470.5" y="1440.5" width="91" height="16.9999" stroke="#000000" stroke-width="4.58333" stroke-linecap="round" stroke-linejoin="round" stroke-miterlimit="10" fill="#FF0000" fill-opacity="0.498039"/><path d="M3473.5 1440.5 3473.5 1381.8 3473.5 1381.46 3473.53 1381.46 3474.29 1372.67C3477.93 1352.03 3493.65 1336.5 3512.5 1336.5 3531.35 1336.5 3547.07 1352.03 3550.71 1372.67L3551.47 1381.46 3551.5 1381.46 3551.5 1381.8 3551.5 1381.8 3551.5 1381.81 3551.5 1440.5Z" stroke="#000000" stroke-width="4.58333" stroke-linecap="round" stroke-linejoin="round" stroke-miterlimit="10" fill="#FF0000" fill-rule="evenodd" fill-opacity="0.498039"/><path d="M0 39.0002 28.5 0 57.0001 39.0002Z" stroke="#000000" stroke-width="4.58333" stroke-linecap="round" stroke-linejoin="round" stroke-miterlimit="10" fill="#FFFFFF" fill-rule="evenodd" fill-opacity="0.698039" transform="matrix(6.12323e-17 1 1 -6.12323e-17 3499.5 1366.5)"/><rect x="0" y="0" width="12" height="57.0001" stroke="#000000" stroke-width="4.58333" stroke-linecap="round" stroke-linejoin="round" stroke-miterlimit="10" fill="#FFFFFF" fill-opacity="0.698039" transform="matrix(-1 1.22465e-16 1.22465e-16 1 3499.5 1366.5)"/><path d="M3.4375 0 3.4375 245 0 241.563 336 241.563C337.899 241.563 339.438 243.102 339.438 245 339.438 246.899 337.899 248.438 336 248.438L0 248.438C-1.89848 248.438-3.4375 246.899-3.4375 245L-3.4375 0C-3.4375-1.89848-1.89848-3.4375 0-3.4375 1.89848-3.4375 3.4375-1.89848 3.4375 0ZM-13.75 0C-13.75-7.59392-7.59392-13.75 0-13.75 7.59392-13.75 13.75-7.59392 13.75 0 13.75 7.59392 7.59392 13.75 0 13.75-7.59392 13.75-13.75 7.59392-13.75 0ZM336 231.25C343.594 231.25 349.75 237.406 349.75 245 349.75 252.594 343.594 258.75 336 258.75 328.406 258.75 322.25 252.594 322.25 245 322.25 237.406 328.406 231.25 336 231.25Z" fill="#4EA72E" transform="matrix(-1 0 0 1 3541.5 1795.5)"/><path d="M8.5001 0C13.1946 0 17.0002 3.8471 17.0002 8.59272L17.0002 23.0559 17.0002 31.9839 17.0002 55 0 55 0 31.9839 0 23.0559 0 8.59272C0 3.8471 3.80563 0 8.5001 0Z" stroke="#000000" stroke-width="4.58333" stroke-linecap="round" stroke-linejoin="round" stroke-miterlimit="10" fill="#BFBFBF" fill-rule="evenodd" transform="matrix(1 -1.22465e-16 -1.22465e-16 -1 3532.5 1802.5)"/><path d="M0 0 18.0002 0 18.0002 22.6754 18.0002 30.6053 18.0002 45.4512C18.0002 50.1726 13.9707 54 9.00011 54 4.0295 54 0 50.1726 0 45.4512L0 30.6053 0 22.6754Z" stroke="#000000" stroke-width="4.58333" stroke-linecap="round" stroke-linejoin="round" stroke-miterlimit="10" fill="#BFBFBF" fill-rule="evenodd" transform="matrix(1 -1.22465e-16 -1.22465e-16 -1 3532.5 1688.5)"/><path d="M84.9218 0C82.9835 0 81.0909 0.202871 79.263 0.589217L76.7063 1.40885 76.4985 0.964703 72.4589 2.24089C67.43 3.47867 61.9012 4.16312 56.0974 4.16312 50.2935 4.16312 44.7645 3.47867 39.7356 2.24089L36.9781 1.36986 36.7274 1.54791 33.737 0.589217C31.9092 0.202871 30.0166 0 28.0783 0 12.5711 0 0 12.9837 0 29 0 45.0164 12.5711 58.0001 28.0783 58.0001 30.0166 58.0001 31.9092 57.7972 33.737 57.4109L35.15 56.958 35.156 56.9712 39.7356 55.5245C44.7645 54.2867 50.2935 53.6023 56.0974 53.6023 61.9012 53.6023 67.43 54.2867 72.4589 55.5245L74.6141 56.2055 74.8161 55.9852 79.263 57.4109C81.0909 57.7972 82.9835 58.0001 84.9218 58.0001 100.429 58.0001 113 45.0164 113 29 113 12.9837 100.429 0 84.9218 0Z" stroke="#000000" stroke-width="4.58333" stroke-linecap="round" stroke-linejoin="round" stroke-miterlimit="10" fill="#DEC9A2" fill-rule="evenodd" transform="matrix(1.83697e-16 1 1 -1.83697e-16 3512.5 1662.5)"/><text font-family="Arial,Arial_MSFontService,sans-serif" font-weight="400" font-size="41" transform="matrix(-1.83697e-16 -1 1 -1.83697e-16 3556.05 1756)">1kΩ</text><text font-family="Arial,Arial_MSFontService,sans-serif" font-weight="400" font-size="41" transform="matrix(-1.83697e-16 -1 1 -1.83697e-16 3556.05 1681)"> </text><text font-family="Arial,Arial_MSFontService,sans-serif" font-weight="400" font-size="41" transform="matrix(1 0 0 1 3565.73 1486)">A</text><text font-family="Arial,Arial_MSFontService,sans-serif" font-weight="400" font-size="41" transform="matrix(1 0 0 1 3593.23 1486)"> </text><text font-family="Arial,Arial_MSFontService,sans-serif" font-weight="400" font-size="41" transform="matrix(1 0 0 1 3430.88 1486)">K</text><text font-family="Arial,Arial_MSFontService,sans-serif" font-weight="400" font-size="41" transform="matrix(1 0 0 1 3458.38 1486)"> </text><path d="M603 696.546C603 664.764 628.764 639 660.546 639L1271.4 639C1303.19 639 1328.95 664.764 1328.95 696.546L1328.95 2010.45C1328.95 2042.24 1303.19 2068 1271.4 2068L660.546 2068C628.764 2068 603 2042.24 603 2010.45Z" fill-rule="evenodd"/><path d="M625 704.159C625 681.427 643.427 663 666.159 663L1265.84 663C1288.57 663 1307 681.427 1307 704.159L1307 2001.84C1307 2024.57 1288.57 2043 1265.84 2043L666.159 2043C643.427 2043 625 2024.57 625 2001.84Z" fill="#404040" fill-rule="evenodd"/><text fill="#FFFFFF" font-family="Arial,Arial_MSFontService,sans-serif" font-weight="700" font-size="83" transform="matrix(1 0 0 1 740.746 857)">Demo Page</text><path d="M653 714C653 700.745 663.521 690 676.5 690 689.479 690 700 700.745 700 714 700 727.255 689.479 738 676.5 738 663.521 738 653 727.255 653 714Z" fill="#7F7F7F" fill-rule="evenodd"/><path d="M722 714C722 700.745 732.521 690 745.5 690 758.479 690 769 700.745 769 714 769 727.255 758.479 738 745.5 738 732.521 738 722 727.255 722 714Z" fill="#7F7F7F" fill-rule="evenodd"/><path d="M790 714C790 700.745 800.745 690 814 690 827.255 690 838 700.745 838 714 838 727.255 827.255 738 814 738 800.745 738 790 727.255 790 714Z" fill="#7F7F7F" fill-rule="evenodd"/><path d="M1203 698C1203 693.582 1206.58 690 1211 690L1270 690C1274.42 690 1278 693.582 1278 698L1278 730C1278 734.418 1274.42 738 1270 738L1211 738C1206.58 738 1203 734.418 1203 730Z" fill="#7F7F7F" fill-rule="evenodd"/><path d="M1194 706.833C1194 705.269 1195.27 704 1196.83 704L1208.17 704C1209.73 704 1211 705.269 1211 706.833L1211 720.167C1211 721.731 1209.73 723 1208.17 723L1196.83 723C1195.27 723 1194 721.731 1194 720.167Z" fill="#7F7F7F" fill-rule="evenodd"/><text fill="#FFFFFF" font-family="Arial,Arial_MSFontService,sans-serif" font-weight="400" font-size="55" transform="matrix(1 0 0 1 646.329 956)">Text</text><text fill="#FFFFFF" font-family="Arial,Arial_MSFontService,sans-serif" font-weight="400" font-size="55" transform="matrix(1 0 0 1 646.329 1165)">Number</text><path d="M646.5 991C646.5 981.887 653.888 974.5 663 974.5L1262 974.5C1271.11 974.5 1278.5 981.887 1278.5 991L1278.5 1057C1278.5 1066.11 1271.11 1073.5 1262 1073.5L663 1073.5C653.888 1073.5 646.5 1066.11 646.5 1057Z" stroke="#7F7F7F" stroke-width="4.58333" stroke-linecap="round" stroke-linejoin="round" stroke-miterlimit="10" fill-rule="evenodd"/><text fill="#FFFFFF" font-family="Arial,Arial_MSFontService,sans-serif" font-weight="400" font-size="55" transform="matrix(1 0 0 1 677.11 1043)">ABC</text><path d="M646.5 1197.83C646.5 1188.81 653.813 1181.5 662.834 1181.5L1262.17 1181.5C1271.19 1181.5 1278.5 1188.81 1278.5 1197.83L1278.5 1263.17C1278.5 1272.19 1271.19 1279.5 1262.17 1279.5L662.834 1279.5C653.813 1279.5 646.5 1272.19 646.5 1263.17Z" stroke="#7F7F7F" stroke-width="4.58333" stroke-linecap="round" stroke-linejoin="round" stroke-miterlimit="10" fill-rule="evenodd"/><text fill="#FFFFFF" font-family="Arial,Arial_MSFontService,sans-serif" font-weight="400" font-size="55" transform="matrix(1 0 0 1 677.11 1250)">12</text><text fill="#FFFFFF" font-family="Arial,Arial_MSFontService,sans-serif" font-weight="400" font-size="55" transform="matrix(1 0 0 1 737.839 1250)">3</text><path d="M651 1342.67C651 1335.67 656.671 1330 663.667 1330L714.333 1330C721.329 1330 727 1335.67 727 1342.67L727 1396.33C727 1403.33 721.329 1409 714.333 1409L663.667 1409C656.671 1409 651 1403.33 651 1396.33Z" fill="#1D99FF" fill-rule="evenodd"/><path d="M662 1366.75 681.333 1387 720 1351" stroke="#FFFFFF" stroke-width="13.75" stroke-miterlimit="8" fill="none" fill-rule="evenodd"/><text fill="#FFFFFF" font-family="Arial,Arial_MSFontService,sans-serif" font-weight="400" font-size="55" transform="matrix(1 0 0 1 753.025 1386)">LED On</text><path d="M811 1479.33C811 1470.31 818.313 1463 827.334 1463L1100.67 1463C1109.69 1463 1117 1470.31 1117 1479.33L1117 1544.67C1117 1553.69 1109.69 1561 1100.67 1561L827.334 1561C818.313 1561 811 1553.69 811 1544.67Z" fill="#1D99FF" fill-rule="evenodd"/><text fill="#FFFFFF" font-family="Arial,Arial_MSFontService,sans-serif" font-weight="700" font-size="55" transform="matrix(1 0 0 1 870.799 1532)">Submit</text><path d="M651 1636.86C651 1619.82 664.815 1606 681.857 1606L1247.14 1606C1264.18 1606 1278 1619.82 1278 1636.86L1278 1897.14C1278 1914.18 1264.18 1928 1247.14 1928L681.857 1928C664.815 1928 651 1914.18 651 1897.14Z" fill-rule="evenodd"/><path d="M870.5 1758.5C870.5 1706.03 913.033 1663.5 965.5 1663.5 1017.97 1663.5 1060.5 1706.03 1060.5 1758.5 1060.5 1810.97 1017.97 1853.5 965.5 1853.5 913.033 1853.5 870.5 1810.97 870.5 1758.5Z" stroke="#7F7F7F" stroke-width="9.16667" stroke-linecap="round" stroke-linejoin="round" stroke-miterlimit="10" fill="#FFFFFF" fill-rule="evenodd"/><text font-family="Arial,Arial_MSFontService,sans-serif" font-weight="400" font-size="55" transform="matrix(1 0 0 1 896.865 1778)">Lamp</text><path d="M899.788 1878.83 929.816 1891.43 889.678 1987.07 859.651 1974.47ZM832.781 1798.47 845.103 1828.61 749.095 1867.86 736.773 1837.72ZM1029.89 1877.68 1069.14 1973.69 1038.99 1986.01 999.747 1890ZM1095.17 1795.46 1190.81 1835.6 1178.21 1865.62 1082.57 1825.49ZM748.356 1649.91 843.995 1690.04 831.393 1720.07 735.754 1679.93ZM1180.94 1656.15 1193.26 1686.3 1097.25 1725.54 1084.93 1695.4ZM887.573 1529.52 926.819 1625.53 896.676 1637.85 857.43 1541.84ZM1045.34 1532.01 1075.37 1544.61 1035.23 1640.25 1005.2 1627.65Z" fill="#FFFFFF" fill-rule="evenodd" fill-opacity="0.501961"/><path d="M1329.5 1749.92 1718.17 1749.92 1718.17 1759.08 1329.5 1759.08ZM1713.58 1740.75 1741.08 1754.5 1713.58 1768.25Z"/><text font-family="Arial,Arial_MSFontService,sans-serif" font-weight="400" font-size="41" transform="matrix(1 0 0 1 3470.25 1315)">LED</text><path d="M1441.5 1885.5 1462.25 1885.5 1462.25 1803.5 1505.09 1803.5 1505.09 1885.34 1524.5 1885.34" stroke="#000000" stroke-width="4.58333" stroke-linecap="round" stroke-linejoin="round" stroke-miterlimit="10" fill="none" fill-rule="evenodd"/><path d="M1523.5 1885.5 1544.25 1885.5 1544.25 1803.5 1587.09 1803.5 1587.09 1885.34 1606.5 1885.34" stroke="#000000" stroke-width="4.58333" stroke-linecap="round" stroke-linejoin="round" stroke-miterlimit="10" fill="none" fill-rule="evenodd"/><path d="M1605.5 1885.5 1626 1885.5 1626 1803.5 1668.32 1803.5 1668.32 1885.34 1687.5 1885.34" stroke="#000000" stroke-width="4.58333" stroke-linecap="round" stroke-linejoin="round" stroke-miterlimit="10" fill="none" fill-rule="evenodd"/><path d="M2261.84 222.5 3381.16 222.5C3392.95 222.5 3402.5 232.011 3402.5 243.744L3402.5 310.5 2240.5 310.5 2240.5 243.744C2240.5 232.011 2250.05 222.5 2261.84 222.5Z" stroke="#7F7F7F" stroke-width="4.58333" stroke-linecap="round" stroke-linejoin="round" stroke-miterlimit="10" fill="#595959" fill-rule="evenodd"/><path d="M2240.5 310.5 3402.5 310.5 3402.5 728.13C3402.5 739.932 3392.95 749.5 3381.16 749.5L2261.84 749.5C2250.05 749.5 2240.5 739.932 2240.5 728.13L2240.5 310.5Z" stroke="#7F7F7F" stroke-width="4.58333" stroke-linecap="round" stroke-linejoin="round" stroke-miterlimit="10" fill-rule="evenodd"/><text fill="#FFFFFF" font-family="Courier New,Courier New_MSFontService,sans-serif" font-weight="700" font-size="55" transform="matrix(1 0 0 1 2290.52 385)">Text: "ABC"</text><text fill="#FFFFFF" font-family="Courier New,Courier New_MSFontService,sans-serif" font-weight="700" font-size="55" transform="matrix(1 0 0 1 2290.52 451)">Number: 123</text><text fill="#FFFFFF" font-family="Courier New,Courier New_MSFontService,sans-serif" font-weight="700" font-size="55" transform="matrix(1 0 0 1 2290.52 517)">LED On: true</text><text fill="#FFFFFF" font-family="Arial,Arial_MSFontService,sans-serif" font-weight="700" font-size="55" transform="matrix(1 0 0 1 2270.98 290)">Serial Monitor</text><path d="M4.58333-1.19347e-05 4.58363 115.678C4.58364 118.209 2.53162 120.261 0.000313153 120.261-2.53099 120.261-4.58303 118.209-4.58303 115.678L-4.58333 1.19347e-05C-4.58334-2.53129-2.53132-4.58333-1.19347e-05-4.58333 2.53129-4.58334 4.58333-2.53132 4.58333-1.19347e-05ZM13.7503 111.095 0.000360892 138.595-13.7497 111.095Z" transform="matrix(1 0 0 -1 2998.5 912.095)"/><text font-family="Arial,Arial_MSFontService,sans-serif" font-weight="400" font-size="55" transform="matrix(1 0 0 1 3028.89 867)">Serial</text><text font-family="Arial,Arial_MSFontService,sans-serif" font-weight="400" font-size="55" transform="matrix(1 0 0 1 739.012 601)">PC or Smartphone</text><path d="M1048.5 1754.5 1327.17 1754.5" stroke="#FFFFFF" stroke-width="9.16667" stroke-linejoin="round" stroke-miterlimit="10" fill="none" fill-rule="evenodd"/></g></svg>